{"glyphs":{"0":{"ha":953,"x_min":32,"x_max":921,"o":"m 276 1040 q 320 1064 276 1040 q 476 1089 364 1089 q 676 1040 589 1089 q 816 908 764 990 q 894 727 868 825 q 921 524 921 629 q 905 360 921 440 q 854 207 889 281 q 769 78 819 133 q 642 -9 718 24 q 476 -42 567 -42 q 310 -9 386 -42 q 184 78 235 24 q 99 207 133 133 q 48 360 64 281 q 32 524 32 440 q 58 727 32 629 q 137 908 85 825 q 276 1040 189 990 m 562 813 q 543 831 562 813 q 476 849 525 849 q 391 813 428 849 q 336 724 354 778 q 310 619 318 669 q 303 525 303 569 q 310 430 303 481 q 336 324 318 379 q 391 234 354 269 q 476 199 428 199 q 562 234 525 199 q 617 324 599 269 q 642 430 635 379 q 650 525 650 481 q 642 619 650 569 q 617 724 635 669 q 562 813 599 778 z "},"1":{"ha":953,"x_min":224,"x_max":646,"o":"m 374 817 l 224 817 l 224 1047 l 646 1047 l 646 0 l 374 0 l 374 817 z "},"2":{"ha":953,"x_min":46,"x_max":888,"o":"m 544 231 l 888 231 l 888 0 l 46 0 l 474 465 q 593 722 593 596 q 559 817 593 775 q 474 858 525 858 q 390 822 421 858 q 360 731 360 786 q 364 686 360 708 l 64 686 q 180 978 71 868 q 472 1089 289 1089 q 759 986 642 1089 q 876 717 876 883 q 835 536 876 611 q 707 382 794 461 l 544 231 z "},"3":{"ha":953,"x_min":47,"x_max":886,"o":"m 354 746 l 101 746 q 224 999 117 903 q 490 1089 325 1089 q 731 1008 636 1089 q 825 785 825 928 q 797 659 825 718 q 715 569 769 600 q 840 470 794 549 q 886 306 886 392 q 827 115 886 196 q 677 -3 768 35 q 479 -42 586 -42 q 167 76 283 -42 q 81 201 117 128 q 47 340 46 275 l 325 340 q 366 234 325 276 q 471 192 407 192 q 576 231 535 192 q 617 332 617 269 q 574 431 617 390 q 472 472 531 472 q 425 464 456 472 l 425 646 l 453 646 q 539 677 506 646 q 572 761 572 708 q 542 838 572 808 q 465 867 511 867 q 383 833 414 867 q 354 746 353 799 z "},"4":{"ha":953,"x_min":22,"x_max":910,"o":"m 783 425 l 910 425 l 910 217 l 783 217 l 783 0 l 531 0 l 531 217 l 22 217 l 22 390 l 426 1047 l 783 1047 l 783 425 m 531 425 l 531 828 l 528 828 l 283 425 l 531 425 z "},"5":{"ha":957,"x_min":79,"x_max":861,"o":"m 785 817 l 422 817 l 404 697 l 490 704 q 755 606 649 717 q 861 329 861 494 q 726 46 861 157 q 421 -42 617 -42 q 79 53 226 -42 l 119 310 q 411 189 254 189 q 528 233 478 189 q 578 343 578 276 q 509 476 578 431 q 349 522 440 522 q 149 479 240 522 l 240 1047 l 785 1047 l 785 817 z "},"6":{"ha":953,"x_min":32,"x_max":921,"o":"m 425 1047 l 733 1047 l 436 693 l 439 690 q 585 722 511 722 q 827 613 733 722 q 921 354 921 504 q 790 64 921 169 q 471 -42 660 -42 q 172 49 286 -42 q 70 178 108 101 q 32 336 32 256 q 200 753 32 533 l 425 1047 m 348 223 q 373 198 348 223 q 469 172 399 172 q 589 223 540 172 q 638 346 638 274 q 589 467 638 417 q 469 517 540 517 q 348 467 399 517 q 297 346 297 417 q 348 223 297 274 z "},"7":{"ha":953,"x_min":58,"x_max":958,"o":"m 536 817 l 99 817 l 99 1047 l 958 1047 l 357 0 l 58 0 l 536 817 z "},"8":{"ha":953,"x_min":76,"x_max":876,"o":"m 558 865 q 541 883 558 865 q 476 900 524 900 q 395 865 429 900 q 361 782 361 831 q 395 699 361 733 q 476 664 429 664 q 558 699 524 664 q 592 782 592 733 q 558 865 592 831 m 565 402 q 546 421 565 402 q 476 440 528 440 q 388 402 425 440 q 351 310 351 364 q 388 219 351 257 q 476 182 425 182 q 565 219 528 182 q 601 310 601 257 q 565 402 601 364 m 225 1010 q 278 1050 225 1010 q 476 1089 331 1089 q 728 1010 622 1089 q 833 790 833 932 q 787 642 833 708 q 668 553 740 576 l 668 550 q 820 447 764 518 q 876 275 876 375 q 813 98 876 172 q 660 -9 749 24 q 476 -42 572 -42 q 292 -9 381 -42 q 140 98 204 24 q 76 275 76 172 q 133 447 76 375 q 285 550 189 518 l 285 553 q 166 642 213 576 q 119 790 119 708 q 225 1010 119 932 z "},"9":{"ha":953,"x_min":32,"x_max":921,"o":"m 529 0 l 219 0 l 518 353 l 515 356 q 368 324 443 324 q 126 433 219 324 q 32 693 32 542 q 163 983 32 878 q 482 1089 293 1089 q 781 999 669 1089 q 883 869 844 947 q 921 710 921 792 q 753 293 921 515 l 529 0 m 483 874 q 364 824 413 874 q 315 701 315 774 q 364 579 315 629 q 483 529 413 529 q 606 579 556 529 q 657 701 657 629 q 606 824 657 774 q 483 874 556 874 z "},"�":{"ha":476,"x_min":0,"x_max":0,"o":""}," ":{"ha":476,"x_min":0,"x_max":0,"o":""},"!":{"ha":533,"x_min":104,"x_max":429,"o":"m 151 250 q 175 274 151 250 q 267 297 199 297 q 382 250 335 297 q 429 135 429 203 q 382 20 429 68 q 267 -28 335 -28 q 151 20 199 -28 q 104 135 104 68 q 151 250 104 203 m 136 356 l 136 1047 l 399 1047 l 399 356 l 136 356 z "},"\"":{"ha":694,"x_min":65,"x_max":629,"o":"m 65 1047 l 301 1047 l 264 588 l 103 588 l 65 1047 m 393 1047 l 629 1047 l 592 588 l 431 588 l 393 1047 z "},"#":{"ha":953,"x_min":94,"x_max":858,"o":"m 368 1008 l 515 1008 l 461 726 l 601 726 l 656 1008 l 801 1008 l 747 726 l 858 726 l 858 569 l 722 569 l 689 397 l 819 397 l 819 240 l 656 240 l 610 0 l 463 0 l 508 240 l 368 240 l 322 0 l 175 0 l 221 240 l 94 240 l 94 397 l 251 397 l 285 569 l 151 569 l 151 726 l 314 726 l 368 1008 m 432 569 l 399 397 l 540 397 l 576 569 l 432 569 z "},"$":{"ha":953,"x_min":94,"x_max":858,"o":"m 94 121 l 208 331 q 329 248 261 282 q 460 214 397 214 q 549 241 508 214 q 590 315 590 268 q 579 354 590 338 q 544 384 568 371 q 498 406 519 397 q 435 426 476 414 q 372 447 394 439 q 213 544 272 485 q 154 719 154 604 q 234 942 154 846 q 438 1046 314 1038 l 438 1214 l 567 1214 l 567 1046 q 819 965 717 1032 l 717 764 q 539 832 632 832 q 455 813 489 832 q 421 754 421 793 q 433 714 421 732 q 472 682 446 696 q 513 662 499 668 q 557 646 528 656 q 673 602 629 622 q 765 547 717 582 q 835 462 813 513 q 858 342 858 411 q 567 3 858 75 l 567 -171 l 438 -171 l 438 -6 q 258 29 350 -6 q 94 121 147 72 z "},"%":{"ha":1354,"x_min":26,"x_max":1328,"o":"m 108 994 q 149 1027 108 994 q 313 1061 190 1061 q 517 994 435 1061 q 599 807 599 926 q 518 617 599 685 q 313 549 438 549 q 107 617 188 549 q 26 807 26 685 q 108 994 26 926 m 396 888 q 378 905 396 888 q 313 922 361 922 q 229 888 264 922 q 194 804 194 853 q 229 722 194 756 q 313 688 264 688 q 396 722 361 688 q 431 804 431 756 q 396 888 431 853 m 913 1047 l 1049 1047 l 440 0 l 304 0 l 913 1047 m 838 431 q 878 465 838 431 q 1042 499 919 499 q 1246 431 1164 499 q 1328 244 1328 364 q 1247 54 1328 122 q 1042 -14 1167 -14 q 836 54 917 -14 q 756 244 756 122 q 838 431 756 364 m 1125 325 q 1108 342 1125 325 q 1042 360 1090 360 q 958 325 993 360 q 924 242 924 290 q 958 159 924 193 q 1042 125 993 125 q 1125 159 1090 125 q 1160 242 1160 193 q 1125 325 1160 290 z "},"&":{"ha":1178,"x_min":53,"x_max":1178,"o":"m 599 260 l 433 438 q 335 313 335 376 q 371 242 335 268 q 453 217 407 217 q 599 260 525 217 m 546 665 q 643 793 643 719 q 617 862 643 833 q 551 890 592 890 q 489 866 514 890 q 464 804 464 842 q 481 751 464 781 q 507 710 497 721 q 546 665 517 699 m 838 0 l 747 97 q 389 -28 564 -28 q 150 53 247 -28 q 53 272 53 133 q 110 449 53 382 q 278 564 168 515 l 303 575 l 281 606 q 270 619 279 607 q 260 634 261 631 q 250 649 258 638 q 240 665 242 660 q 231 681 238 669 q 222 700 225 693 q 215 719 219 707 q 210 740 211 731 q 207 763 208 750 q 206 788 206 775 q 302 997 206 918 q 531 1075 399 1075 q 760 997 663 1075 q 858 790 858 919 q 808 643 858 700 q 664 539 757 586 l 796 400 q 933 549 885 479 l 1088 401 l 956 260 l 943 247 l 1178 0 l 838 0 z "},"’":{"ha":517,"x_min":74,"x_max":490,"o":"m 254 1047 l 490 1047 l 235 588 l 74 588 l 254 1047 z "},"(":{"ha":489,"x_min":68,"x_max":421,"o":"m 269 1097 l 421 1011 q 261 381 261 754 q 302 44 261 218 q 421 -247 343 -129 l 269 -333 q 118 1 168 -200 q 68 397 68 201 q 120 771 68 579 q 269 1097 172 963 z "},")":{"ha":489,"x_min":68,"x_max":421,"o":"m 68 1011 l 219 1097 q 369 771 317 963 q 421 397 421 579 q 371 1 421 201 q 219 -333 321 -200 l 68 -247 q 187 44 146 -129 q 228 381 228 218 q 68 1011 228 754 z "},"*":{"ha":671,"x_min":94,"x_max":576,"o":"m 272 1047 l 397 1047 l 390 899 l 514 976 l 576 871 l 444 801 l 575 729 l 513 625 l 390 704 l 396 564 l 271 564 l 279 703 l 161 628 l 99 733 l 224 803 l 94 874 l 158 979 l 279 903 l 272 1047 z "},"+":{"ha":953,"x_min":121,"x_max":832,"o":"m 372 461 l 372 713 l 581 713 l 581 461 l 832 461 l 832 253 l 581 253 l 581 0 l 372 0 l 372 253 l 121 253 l 121 461 l 372 461 z "},",":{"ha":476,"x_min":31,"x_max":449,"o":"m 211 265 l 449 265 l 193 -196 l 31 -196 l 211 265 z "},".":{"ha":476,"x_min":76,"x_max":401,"o":"m 124 250 q 147 274 124 250 q 239 297 171 297 q 354 250 307 297 q 401 135 401 203 q 354 20 401 68 q 239 -28 307 -28 q 124 20 171 -28 q 76 135 76 68 q 124 250 76 203 z "},"/":{"ha":804,"x_min":38,"x_max":767,"o":"m 568 1153 l 767 1153 l 236 -129 l 38 -129 l 568 1153 z "},":":{"ha":476,"x_min":76,"x_max":401,"o":"m 124 250 q 147 274 124 250 q 239 297 171 297 q 354 250 307 297 q 401 135 401 203 q 354 20 401 68 q 239 -28 307 -28 q 124 20 171 -28 q 76 135 76 68 q 124 250 76 203 m 124 718 q 147 742 124 718 q 239 765 171 765 q 354 718 307 765 q 401 603 401 671 q 354 488 401 536 q 239 440 307 440 q 124 488 171 440 q 76 603 76 536 q 124 718 76 671 z "},";":{"ha":476,"x_min":11,"x_max":465,"o":"m 192 265 l 429 265 l 174 -196 l 11 -196 l 192 265 m 188 718 q 211 742 188 718 q 303 765 235 765 q 418 718 371 765 q 465 603 465 671 q 418 488 465 536 q 303 440 371 440 q 188 488 235 440 q 140 603 140 536 q 188 718 140 671 z "},"<":{"ha":953,"x_min":138,"x_max":817,"o":"m 138 274 l 138 440 l 817 693 l 817 485 l 436 358 l 436 356 l 817 229 l 817 21 l 138 274 z "},"=":{"ha":953,"x_min":121,"x_max":832,"o":"m 121 628 l 832 628 l 832 419 l 121 419 l 121 628 m 121 294 l 832 294 l 832 86 l 121 86 l 121 294 z "},">":{"ha":953,"x_min":138,"x_max":817,"o":"m 817 440 l 817 274 l 138 21 l 138 229 l 518 356 l 518 358 l 138 485 l 138 693 l 817 440 z "},"?":{"ha":826,"x_min":21,"x_max":764,"o":"m 258 350 l 258 619 q 317 613 290 613 q 440 649 383 613 q 496 750 496 686 q 467 824 496 793 q 394 854 438 854 q 323 825 349 854 q 297 749 297 796 l 21 749 q 134 988 22 900 q 401 1075 246 1075 q 644 989 544 1075 q 731 880 699 944 q 764 749 764 815 q 695 560 764 636 q 513 449 626 485 l 513 350 l 258 350 m 275 250 q 299 274 275 250 q 390 297 322 297 q 506 250 458 297 q 553 135 553 203 q 506 20 553 68 q 390 -28 458 -28 q 275 20 322 -28 q 228 135 228 68 q 275 250 228 203 z "},"@":{"ha":1028,"x_min":7,"x_max":1019,"o":"m 389 492 q 417 401 389 438 q 494 364 446 364 q 585 410 553 364 q 625 517 618 456 q 604 614 632 576 q 525 651 576 651 q 428 601 468 651 q 389 492 389 551 m 822 792 l 753 431 q 749 346 739 360 q 769 339 756 338 q 855 419 810 343 q 906 581 900 494 q 808 847 915 750 q 533 944 700 944 q 249 826 360 944 q 138 524 138 707 q 256 219 138 335 q 557 103 375 103 q 806 158 717 103 l 919 67 q 546 -28 736 -28 q 163 130 319 -28 q 7 524 7 288 q 160 917 7 758 q 538 1075 314 1075 q 864 954 731 1075 q 1019 629 1019 817 q 933 333 1019 447 q 719 211 838 206 q 666 235 690 213 q 633 292 642 258 q 456 211 564 211 q 292 288 363 211 q 222 469 222 364 q 301 703 222 603 q 506 804 381 804 q 676 718 617 804 l 690 792 l 822 792 z "},"A":{"ha":1085,"x_min":-6,"x_max":1089,"o":"m 731 182 l 356 182 l 283 0 l -6 0 l 397 1047 l 694 1047 l 1089 0 l 799 0 l 731 182 m 657 390 l 546 724 l 543 724 l 431 390 l 657 390 z "},"B":{"ha":940,"x_min":89,"x_max":888,"o":"m 361 433 l 361 208 l 396 208 q 441 208 429 208 q 486 211 453 208 q 535 221 519 214 q 573 240 551 228 q 603 272 594 251 q 613 319 613 292 q 608 357 613 340 q 594 385 604 374 q 575 405 583 396 q 548 419 567 414 q 519 427 529 424 q 485 432 510 431 q 453 433 461 433 q 419 433 446 433 q 389 433 393 433 l 361 433 m 508 0 l 89 0 l 89 1047 l 478 1047 q 789 775 789 1047 q 674 561 789 619 l 674 558 q 888 292 888 531 q 856 154 888 213 q 769 63 824 96 q 649 15 714 31 q 508 0 585 0 m 361 839 l 361 636 l 392 636 q 499 657 458 636 q 539 738 539 678 q 526 794 539 772 q 486 824 513 815 q 438 836 460 833 q 381 839 415 839 l 361 839 z "},"C":{"ha":917,"x_min":36,"x_max":838,"o":"m 838 1022 l 838 696 q 733 781 796 751 q 599 811 669 811 q 397 728 475 811 q 319 521 319 644 q 398 316 319 396 q 603 236 476 236 q 732 266 669 236 q 838 347 794 296 l 838 21 q 597 -28 679 -28 q 204 126 374 -28 q 36 522 36 278 q 190 906 36 747 q 374 1030 268 985 q 589 1075 479 1075 q 838 1022 710 1075 z "},"D":{"ha":1044,"x_min":89,"x_max":1007,"o":"m 89 0 l 89 1047 l 475 1047 q 851 895 694 1047 q 1007 524 1007 743 q 851 152 1007 304 q 475 0 694 0 l 89 0 m 361 817 l 361 231 l 422 231 q 638 304 553 231 q 724 524 724 378 q 642 739 724 661 q 425 817 560 817 l 361 817 z "},"E":{"ha":764,"x_min":89,"x_max":685,"o":"m 685 817 l 361 817 l 361 642 l 668 642 l 668 411 l 361 411 l 361 231 l 685 231 l 685 0 l 89 0 l 89 1047 l 685 1047 l 685 817 z "},"F":{"ha":753,"x_min":89,"x_max":690,"o":"m 690 817 l 361 817 l 361 642 l 660 642 l 660 411 l 361 411 l 361 0 l 89 0 l 89 1047 l 690 1047 l 690 817 z "},"G":{"ha":1169,"x_min":36,"x_max":1133,"o":"m 593 585 l 1133 585 q 1110 354 1131 449 q 1026 171 1090 260 q 594 -35 879 -35 q 192 119 347 -35 q 36 518 36 272 q 193 927 36 772 q 604 1082 350 1082 q 889 1008 768 1082 q 1076 789 1010 935 l 818 681 q 731 803 789 758 q 592 847 672 847 q 392 747 465 847 q 319 517 319 647 q 394 288 319 386 q 596 189 468 189 q 747 236 688 189 q 815 371 807 283 l 593 371 l 593 585 z "},"H":{"ha":1115,"x_min":89,"x_max":1026,"o":"m 361 643 l 754 643 l 754 1047 l 1026 1047 l 1026 0 l 754 0 l 754 429 l 361 429 l 361 0 l 89 0 l 89 1047 l 361 1047 l 361 643 z "},"I":{"ha":450,"x_min":89,"x_max":361,"o":"m 361 1047 l 361 0 l 89 0 l 89 1047 l 361 1047 z "},"J":{"ha":679,"x_min":-21,"x_max":596,"o":"m 324 1047 l 596 1047 l 596 340 q 507 71 596 169 q 249 -28 418 -28 q -21 126 79 -28 l 136 292 q 246 203 201 203 q 280 209 265 203 q 302 231 294 215 q 315 257 310 246 q 322 292 319 268 q 324 324 324 315 q 324 357 324 333 l 324 1047 z "},"K":{"ha":1053,"x_min":89,"x_max":1068,"o":"m 364 615 l 693 1047 l 1031 1047 l 614 551 l 1068 0 l 715 0 l 364 454 l 361 454 l 361 0 l 89 0 l 89 1047 l 361 1047 l 361 615 l 364 615 z "},"L":{"ha":688,"x_min":89,"x_max":688,"o":"m 361 1047 l 361 231 l 688 231 l 688 0 l 89 0 l 89 1047 l 361 1047 z "},"M":{"ha":1365,"x_min":26,"x_max":1339,"o":"m 26 0 l 204 1047 l 472 1047 l 685 488 l 910 1047 l 1181 1047 l 1339 0 l 1067 0 l 990 603 l 988 603 l 736 0 l 628 0 l 388 603 l 385 603 l 297 0 l 26 0 z "},"N":{"ha":1224,"x_min":89,"x_max":1135,"o":"m 89 0 l 89 1047 l 361 1047 l 860 407 l 863 407 l 863 1047 l 1135 1047 l 1135 0 l 863 0 l 364 642 l 361 642 l 361 0 l 89 0 z "},"O":{"ha":1232,"x_min":36,"x_max":1194,"o":"m 332 1015 q 398 1048 332 1015 q 615 1082 464 1082 q 899 1015 767 1082 q 1113 822 1031 947 q 1194 543 1194 697 q 1031 127 1194 289 q 615 -35 868 -35 q 199 127 363 -35 q 36 543 36 289 q 118 822 36 697 q 332 1015 200 947 m 824 735 q 780 776 824 735 q 615 818 736 818 q 407 735 494 818 q 319 542 319 651 q 406 319 319 408 q 615 229 492 229 q 825 319 739 229 q 911 542 911 408 q 824 735 911 651 z "},"P":{"ha":918,"x_min":89,"x_max":886,"o":"m 89 0 l 89 1047 l 506 1047 q 784 962 682 1047 q 886 703 886 876 q 515 347 886 347 l 361 347 l 361 0 l 89 0 m 361 828 l 361 567 l 407 567 q 466 567 446 567 q 517 575 486 568 q 564 594 549 582 q 591 632 579 607 q 603 694 603 657 q 592 759 603 733 q 565 799 581 785 q 520 819 550 813 q 469 826 490 825 q 407 828 447 828 l 361 828 z "},"Q":{"ha":1232,"x_min":36,"x_max":1236,"o":"m 789 442 l 863 365 q 911 519 911 433 q 824 728 911 639 q 617 818 738 818 q 408 735 496 818 q 319 542 319 651 q 406 319 319 408 q 617 229 493 229 q 700 243 660 229 l 532 410 l 789 442 m 1236 -26 l 986 -65 l 903 33 q 615 -35 790 -35 q 199 127 363 -35 q 36 543 36 289 q 118 822 36 697 q 332 1015 200 947 q 615 1082 464 1082 q 1029 927 864 1082 q 1194 521 1194 772 q 1060 153 1194 319 l 1236 -26 z "},"R":{"ha":944,"x_min":89,"x_max":960,"o":"m 631 429 l 960 0 l 621 0 l 364 403 l 361 403 l 361 0 l 89 0 l 89 1047 l 496 1047 q 760 967 660 1047 q 860 725 860 886 q 799 531 860 613 q 631 429 739 449 m 361 839 l 361 578 l 388 578 q 576 708 576 578 q 388 839 576 839 l 361 839 z "},"S":{"ha":856,"x_min":42,"x_max":815,"o":"m 772 989 l 664 778 q 483 847 581 847 q 403 824 440 847 q 367 760 367 800 q 390 710 367 732 q 433 679 413 688 q 488 660 453 671 l 557 639 q 747 537 679 603 q 815 353 815 471 q 707 71 815 163 q 410 -28 590 -28 q 42 92 213 -28 l 158 311 q 400 203 282 203 q 492 230 453 203 q 532 308 532 257 q 400 418 532 379 q 367 428 396 419 q 249 467 292 449 q 163 517 206 485 q 101 600 119 550 q 83 724 83 650 q 185 978 83 882 q 444 1075 286 1075 q 613 1051 524 1075 q 772 989 703 1028 z "},"T":{"ha":740,"x_min":8,"x_max":731,"o":"m 506 817 l 506 0 l 233 0 l 233 817 l 8 817 l 8 1047 l 731 1047 l 731 817 l 506 817 z "},"U":{"ha":1081,"x_min":83,"x_max":997,"o":"m 725 1047 l 997 1047 l 997 458 q 977 244 997 331 q 888 89 957 157 q 540 -28 769 -28 q 193 89 311 -28 q 103 244 124 157 q 83 458 83 331 l 83 1047 l 356 1047 l 356 496 q 358 413 356 446 q 370 338 360 379 q 399 271 381 296 q 454 228 418 246 q 540 211 490 211 q 626 228 590 211 q 681 271 663 246 q 710 338 700 296 q 723 413 721 379 q 725 496 725 446 l 725 1047 z "},"V":{"ha":1057,"x_min":-21,"x_max":1078,"o":"m 275 1047 l 528 411 l 782 1047 l 1078 1047 l 631 0 l 419 0 l -21 1047 l 275 1047 z "},"W":{"ha":1551,"x_min":-21,"x_max":1572,"o":"m 263 1047 l 444 371 l 447 371 l 667 1047 l 883 1047 l 1089 371 l 1092 371 l 1289 1047 l 1572 1047 l 1238 0 l 960 0 l 776 607 l 774 607 l 568 0 l 292 0 l -21 1047 l 263 1047 z "},"X":{"ha":1096,"x_min":-11,"x_max":1106,"o":"m 399 560 l 64 1047 l 399 1047 l 558 776 l 718 1047 l 1053 1047 l 718 560 l 1106 0 l 778 0 l 558 342 l 318 0 l -11 0 l 399 560 z "},"Y":{"ha":992,"x_min":-26,"x_max":1018,"o":"m 360 503 l -26 1047 l 300 1047 l 496 763 l 692 1047 l 1018 1047 l 632 503 l 632 0 l 360 0 l 360 503 z "},"Z":{"ha":982,"x_min":15,"x_max":967,"o":"m 474 231 l 913 231 l 913 0 l 15 0 l 511 817 l 100 817 l 100 1047 l 967 1047 l 474 231 z "},"[":{"ha":486,"x_min":72,"x_max":414,"o":"m 265 950 l 265 -186 l 414 -186 l 414 -333 l 72 -333 l 72 1097 l 414 1097 l 414 950 l 265 950 z "},"\\":{"ha":804,"x_min":38,"x_max":767,"o":"m 38 1153 l 238 1153 l 767 0 l 569 0 l 38 1153 z "},"]":{"ha":486,"x_min":72,"x_max":414,"o":"m 221 -186 l 221 950 l 72 950 l 72 1097 l 414 1097 l 414 -333 l 72 -333 l 72 -186 l 221 -186 z "},"^":{"ha":953,"x_min":143,"x_max":810,"o":"m 301 472 l 143 565 l 393 1089 l 560 1089 l 810 565 l 651 472 l 476 846 l 301 472 z "},"_":{"ha":694,"x_min":0,"x_max":694,"o":"m 694 -174 l 0 -174 l 0 -104 l 694 -104 l 694 -174 z "},"‘":{"ha":517,"x_min":26,"x_max":443,"o":"m 263 588 l 26 588 l 282 1047 l 443 1047 l 263 588 z "},"a":{"ha":947,"x_min":32,"x_max":863,"o":"m 574 470 q 552 493 574 470 q 456 517 531 517 q 337 470 381 517 q 293 356 293 424 q 337 241 293 286 q 456 196 381 196 q 574 241 531 196 q 618 356 618 286 q 574 470 618 424 m 863 713 l 863 0 l 610 0 l 610 79 l 607 79 q 517 2 575 28 q 392 -24 458 -24 q 134 88 236 -24 q 32 357 32 200 q 133 625 32 514 q 389 736 233 736 q 610 643 531 736 l 610 713 l 863 713 z "},"b":{"ha":947,"x_min":75,"x_max":906,"o":"m 75 0 l 75 1153 l 328 1153 l 328 643 q 549 736 408 736 q 805 625 704 736 q 906 357 906 514 q 804 88 906 200 q 546 -24 703 -24 q 422 2 479 -24 q 331 79 364 28 l 328 79 l 328 0 l 75 0 m 601 470 q 579 493 601 470 q 482 517 557 517 q 363 470 407 517 q 319 356 319 424 q 363 241 319 286 q 482 196 407 196 q 601 241 557 196 q 644 356 644 286 q 601 470 644 424 z "},"c":{"ha":671,"x_min":32,"x_max":597,"o":"m 597 694 l 597 481 q 467 531 529 531 q 343 481 393 531 q 293 357 293 431 q 343 231 293 281 q 471 182 393 182 q 597 231 544 182 l 597 17 q 419 -24 517 -24 q 145 83 258 -24 q 32 349 32 189 q 147 627 32 518 q 431 736 261 736 q 597 694 522 736 z "},"d":{"ha":947,"x_min":42,"x_max":872,"o":"m 619 0 l 619 79 l 617 79 q 526 2 585 28 q 401 -24 468 -24 q 144 88 246 -24 q 42 357 42 200 q 142 625 42 514 q 399 736 243 736 q 619 643 540 736 l 619 1153 l 872 1153 l 872 0 l 619 0 m 584 470 q 562 493 584 470 q 465 517 540 517 q 347 470 390 517 q 303 356 303 424 q 347 241 303 286 q 465 196 390 196 q 584 241 540 196 q 628 356 628 286 q 584 470 628 424 z "},"e":{"ha":847,"x_min":31,"x_max":815,"o":"m 288 460 l 581 460 q 531 541 571 510 q 438 572 490 572 q 340 543 381 572 q 288 460 299 514 m 815 340 l 815 314 l 283 314 q 442 156 283 156 q 563 221 524 156 l 806 221 q 675 39 776 101 q 443 -24 574 -24 q 145 76 260 -24 q 31 356 31 176 q 140 634 31 532 q 425 736 249 736 q 713 630 610 736 q 815 340 815 524 z "},"f":{"ha":539,"x_min":19,"x_max":538,"o":"m 361 504 l 361 0 l 108 0 l 108 504 l 19 504 l 19 713 l 108 713 l 108 803 q 121 945 108 892 q 181 1053 133 999 q 429 1167 278 1167 q 538 1142 489 1167 l 538 924 q 449 947 482 947 q 381 919 401 947 q 361 828 361 890 l 361 713 l 538 713 l 538 504 l 361 504 z "},"g":{"ha":940,"x_min":35,"x_max":865,"o":"m 865 713 l 865 69 q 760 -253 865 -151 q 453 -356 656 -356 q 280 -328 365 -356 q 126 -236 194 -300 q 47 -83 58 -172 l 331 -83 q 378 -137 340 -119 q 450 -154 411 -154 q 578 -101 544 -154 q 613 50 613 -49 l 613 83 q 386 -14 515 -14 q 133 90 232 -14 q 35 350 35 194 q 138 623 35 510 q 400 736 240 736 q 610 638 540 736 l 613 638 l 613 713 l 865 713 m 577 476 q 555 499 577 476 q 458 522 533 522 q 340 476 383 522 q 296 361 296 429 q 340 247 296 292 q 458 201 383 201 q 577 247 533 201 q 621 361 621 292 q 577 476 621 429 z "},"h":{"ha":918,"x_min":83,"x_max":835,"o":"m 83 1153 l 336 1153 l 336 622 l 339 622 q 567 736 425 736 q 767 656 699 736 q 835 436 835 575 l 835 0 l 582 0 l 582 365 q 559 489 582 443 q 468 535 536 535 q 367 486 399 535 q 336 365 336 438 l 336 0 l 83 0 l 83 1153 z "},"i":{"ha":419,"x_min":68,"x_max":351,"o":"m 336 713 l 336 0 l 83 0 l 83 713 l 336 713 m 110 1086 q 131 1107 110 1086 q 210 1128 151 1128 q 310 1086 268 1128 q 351 986 351 1044 q 310 886 351 928 q 210 844 268 844 q 110 886 151 844 q 68 986 68 928 q 110 1086 68 1044 z "},"j":{"ha":419,"x_min":68,"x_max":351,"o":"m 336 713 l 336 -356 l 83 -356 l 83 713 l 336 713 m 110 1086 q 131 1107 110 1086 q 210 1128 151 1128 q 310 1086 268 1128 q 351 986 351 1044 q 310 886 351 928 q 210 844 268 844 q 110 886 151 844 q 68 986 68 928 q 110 1086 68 1044 z "},"k":{"ha":956,"x_min":83,"x_max":967,"o":"m 336 1153 l 336 456 l 599 713 l 944 713 l 588 383 l 967 0 l 613 0 l 336 290 l 336 0 l 83 0 l 83 1153 l 336 1153 z "},"l":{"ha":419,"x_min":83,"x_max":336,"o":"m 336 1153 l 336 0 l 83 0 l 83 1153 l 336 1153 z "},"m":{"ha":1374,"x_min":83,"x_max":1292,"o":"m 336 713 l 336 624 l 339 624 q 564 736 424 736 q 807 600 733 736 q 908 701 843 665 q 1049 736 974 736 q 1292 454 1292 736 l 1292 0 l 1039 0 l 1039 340 q 1038 390 1039 375 q 1033 439 1038 406 q 1018 489 1028 472 q 987 520 1008 506 q 935 535 965 535 q 878 522 901 535 q 842 491 854 508 q 823 444 829 474 q 815 394 817 415 q 814 340 814 372 l 814 0 l 561 0 l 561 340 q 560 383 561 368 q 557 426 560 399 q 547 471 554 454 q 528 506 540 488 q 496 532 517 524 q 449 540 475 540 q 401 532 422 540 q 369 506 381 524 q 350 471 357 488 q 340 426 343 454 q 337 383 338 399 q 336 340 336 368 l 336 0 l 83 0 l 83 713 l 336 713 z "},"n":{"ha":918,"x_min":83,"x_max":835,"o":"m 336 713 l 336 621 l 339 621 q 567 736 417 736 q 769 658 704 736 q 835 440 835 579 l 835 0 l 582 0 l 582 347 q 582 369 582 350 q 582 394 582 388 q 581 417 582 400 q 578 443 581 435 q 572 467 576 451 q 563 489 568 482 q 548 506 557 496 q 528 522 539 517 q 501 531 517 526 q 468 535 486 535 q 336 369 336 535 l 336 0 l 83 0 l 83 713 l 336 713 z "},"o":{"ha":919,"x_min":31,"x_max":889,"o":"m 155 633 q 217 685 155 633 q 460 736 279 736 q 765 633 640 736 q 889 356 889 531 q 765 78 889 181 q 460 -24 640 -24 q 156 78 281 -24 q 31 356 31 181 q 155 633 31 531 m 578 470 q 557 493 578 470 q 460 517 535 517 q 341 470 385 517 q 297 356 297 424 q 341 241 297 286 q 460 196 385 196 q 578 241 535 196 q 622 356 622 286 q 578 470 622 424 z "},"p":{"ha":947,"x_min":75,"x_max":906,"o":"m 328 713 l 328 632 l 331 632 q 422 710 364 683 q 546 736 481 736 q 803 624 701 736 q 906 354 906 511 q 805 87 906 197 q 549 -24 704 -24 q 328 68 407 -24 l 328 -356 l 75 -356 l 75 713 l 328 713 m 601 470 q 579 493 601 470 q 482 517 557 517 q 363 470 407 517 q 319 356 319 424 q 363 241 319 286 q 482 196 407 196 q 601 241 557 196 q 644 356 644 286 q 601 470 644 424 z "},"q":{"ha":947,"x_min":42,"x_max":872,"o":"m 872 713 l 872 -356 l 619 -356 l 619 68 q 399 -24 542 -24 q 142 87 243 -24 q 42 354 42 197 q 144 623 42 510 q 401 736 246 736 q 526 710 468 736 q 617 632 585 683 l 619 632 l 619 713 l 872 713 m 584 470 q 562 493 584 470 q 465 517 540 517 q 347 470 390 517 q 303 356 303 424 q 347 241 303 286 q 465 196 390 196 q 584 241 540 196 q 628 356 628 286 q 584 470 628 424 z "},"r":{"ha":629,"x_min":83,"x_max":618,"o":"m 336 713 l 336 596 l 339 596 q 569 722 410 722 l 618 722 l 618 479 q 511 503 576 503 q 374 447 413 503 q 336 288 336 390 l 336 0 l 83 0 l 83 713 l 336 713 z "},"s":{"ha":713,"x_min":36,"x_max":660,"o":"m 639 690 l 554 529 q 418 564 489 564 q 365 551 390 564 q 339 515 339 539 q 343 497 339 506 q 356 483 347 489 q 372 472 364 476 q 394 465 381 468 q 415 460 407 461 q 435 456 422 458 q 453 453 449 454 q 660 242 660 411 q 560 44 660 111 q 324 -24 461 -24 q 36 58 169 -24 l 128 235 q 226 184 169 206 q 328 163 283 163 q 382 176 357 163 q 407 217 407 190 q 399 244 407 232 q 374 263 392 256 q 340 275 356 271 q 294 285 324 279 q 249 296 265 292 q 133 356 176 315 q 90 483 90 397 q 138 626 90 567 q 253 710 185 685 q 404 736 322 736 q 639 690 538 736 z "},"t":{"ha":500,"x_min":25,"x_max":503,"o":"m 360 504 l 360 0 l 107 0 l 107 504 l 25 504 l 25 713 l 107 713 l 107 926 l 360 926 l 360 713 l 503 713 l 503 504 l 360 504 z "},"u":{"ha":915,"x_min":79,"x_max":838,"o":"m 79 713 l 332 713 l 332 332 q 359 217 332 257 q 458 178 386 178 q 558 217 531 178 q 585 332 585 257 l 585 713 l 838 713 l 838 283 q 458 -24 838 -24 q 79 283 79 -24 l 79 713 z "},"v":{"ha":865,"x_min":-21,"x_max":886,"o":"m 263 713 l 433 347 l 603 713 l 886 713 l 514 0 l 353 0 l -21 713 l 263 713 z "},"w":{"ha":1383,"x_min":-21,"x_max":1404,"o":"m 260 713 l 438 326 l 617 713 l 767 713 l 946 326 l 1125 713 l 1404 713 l 1032 0 l 868 0 l 692 390 l 515 0 l 351 0 l -21 713 l 260 713 z "},"x":{"ha":989,"x_min":-21,"x_max":1010,"o":"m 335 386 l 46 713 l 367 713 l 494 565 l 622 713 l 949 713 l 654 386 l 1010 0 l 678 0 l 494 211 l 311 0 l -21 0 l 335 386 z "},"y":{"ha":908,"x_min":-21,"x_max":935,"o":"m 324 97 l -21 713 l 271 713 l 461 347 l 647 713 l 935 713 l 364 -356 l 81 -356 l 324 97 z "},"z":{"ha":776,"x_min":11,"x_max":767,"o":"m 433 210 l 733 210 l 733 0 l 11 0 l 346 503 l 56 503 l 56 713 l 767 713 l 433 210 z "},"{":{"ha":489,"x_min":50,"x_max":439,"o":"m 50 315 l 50 460 q 133 485 114 460 q 147 533 147 501 l 147 885 q 201 1041 147 985 q 304 1097 256 1097 l 439 1097 l 439 931 l 404 931 q 360 917 375 931 q 342 889 344 903 q 340 849 340 875 l 340 536 q 207 389 340 410 l 207 386 q 238 381 226 383 q 272 369 250 379 q 307 343 294 358 q 330 297 319 328 q 340 224 340 265 l 340 -85 q 342 -116 340 -106 q 349 -140 343 -126 q 368 -160 354 -154 q 404 -167 382 -167 l 439 -167 l 439 -333 l 304 -333 q 201 -277 256 -333 q 147 -124 147 -221 l 147 228 q 145 256 147 243 q 138 278 143 269 q 128 294 133 288 q 115 304 124 300 q 102 311 107 308 q 88 315 97 314 q 74 315 78 315 q 60 315 69 315 q 50 315 51 315 z "},"|":{"ha":804,"x_min":299,"x_max":507,"o":"m 507 1092 l 507 -297 l 299 -297 l 299 1092 l 507 1092 z "},"}":{"ha":489,"x_min":50,"x_max":439,"o":"m 439 460 l 439 315 q 428 315 438 315 q 415 315 419 315 q 401 315 411 315 q 387 311 392 314 q 374 304 382 308 q 360 294 365 300 q 351 278 356 288 q 344 256 346 269 q 342 228 342 243 l 342 -124 q 288 -277 342 -221 q 185 -333 233 -333 l 50 -333 l 50 -167 l 85 -167 q 121 -160 107 -167 q 140 -140 135 -154 q 147 -116 146 -126 q 149 -85 149 -106 l 149 224 q 159 297 149 265 q 182 343 169 328 q 217 369 194 358 q 251 381 239 379 q 282 386 263 383 l 282 389 q 149 536 149 410 l 149 849 q 147 889 149 875 q 129 917 144 903 q 85 931 114 931 l 50 931 l 50 1097 l 185 1097 q 288 1041 233 1097 q 342 885 342 985 l 342 533 q 433 460 342 458 q 439 460 438 460 z "},"~":{"ha":953,"x_min":68,"x_max":885,"o":"m 726 518 l 885 383 q 841 313 858 339 q 790 247 824 286 q 719 187 757 207 q 642 167 682 167 q 604 170 622 167 q 565 183 586 174 q 534 197 543 193 q 499 217 525 201 q 471 233 474 232 q 416 268 454 243 q 356 303 378 293 q 315 314 335 314 q 225 197 276 314 l 68 331 q 114 393 79 344 q 171 469 149 442 q 233 522 193 496 q 313 549 272 549 q 490 471 389 549 q 640 401 579 401 q 726 518 683 401 z "},"¡":{"ha":533,"x_min":104,"x_max":429,"o":"m 151 692 q 175 715 151 692 q 267 739 199 739 q 382 692 335 739 q 429 576 429 644 q 382 462 429 510 q 267 414 335 414 q 151 462 199 414 q 104 576 104 510 q 151 692 104 644 m 136 354 l 399 354 l 399 -337 l 136 -337 l 136 354 z "},"¢":{"ha":953,"x_min":196,"x_max":757,"o":"m 547 14 l 547 151 q 299 267 401 157 q 196 524 196 378 q 294 783 196 679 q 547 903 392 888 l 547 1032 l 676 1032 l 676 894 l 757 871 l 757 644 q 635 697 701 697 q 510 649 560 697 q 460 528 460 601 q 508 407 460 457 q 626 357 556 357 q 757 410 713 357 l 757 183 q 676 161 704 164 l 676 14 l 547 14 z "},"£":{"ha":953,"x_min":26,"x_max":928,"o":"m 664 417 l 467 417 q 480 325 479 382 q 467 231 481 268 l 482 225 q 688 178 614 178 q 739 196 719 178 q 758 246 758 214 l 928 246 q 855 51 919 125 q 672 -22 790 -22 q 634 -20 653 -22 q 593 -13 615 -18 q 558 -5 571 -8 q 517 6 544 -1 q 481 17 490 14 q 304 51 358 51 q 217 0 231 51 l 36 0 q 119 171 54 97 q 275 246 183 244 q 250 417 311 322 l 26 417 l 26 522 l 176 522 q 126 700 126 603 q 239 965 126 857 q 532 1067 344 1067 q 826 973 736 1067 q 918 672 915 879 l 649 672 l 649 721 q 612 813 649 774 q 522 853 575 853 q 426 810 461 853 q 390 706 390 768 q 447 522 390 606 l 664 522 l 664 417 z "},"⁄":{"ha":269,"x_min":-237,"x_max":507,"o":"m 371 1047 l 507 1047 l -101 0 l -237 0 l 371 1047 z "},"¥":{"ha":953,"x_min":-15,"x_max":968,"o":"m 879 619 l 682 619 l 604 503 l 879 503 l 879 397 l 604 397 l 604 0 l 349 0 l 349 397 l 71 397 l 71 503 l 347 503 l 268 619 l 71 619 l 71 725 l 199 725 l -15 1047 l 293 1047 l 476 763 l 660 1047 l 968 1047 l 753 725 l 879 725 l 879 619 z "},"ƒ":{"ha":953,"x_min":-8,"x_max":919,"o":"m 654 701 l 807 701 l 789 596 l 636 596 l 565 208 q 522 22 546 97 q 447 -118 497 -53 q 139 -251 331 -268 l -8 -239 l 33 -10 q 132 -22 106 -22 q 220 -1 188 -22 q 275 72 253 21 q 322 272 294 122 l 381 596 l 261 596 l 278 701 l 400 701 l 428 851 q 459 969 442 924 q 514 1057 476 1015 q 739 1153 600 1153 q 919 1106 850 1153 l 879 888 q 771 929 822 929 q 714 905 736 929 q 684 853 692 881 q 669 789 676 826 q 668 778 668 782 l 654 701 z "},"§":{"ha":953,"x_min":79,"x_max":875,"o":"m 396 375 l 628 260 q 664 335 664 289 q 656 371 664 354 q 628 401 647 388 q 597 421 610 414 q 563 439 585 428 l 335 554 q 292 479 292 529 q 295 458 292 468 q 301 442 299 449 q 313 426 304 435 q 326 414 322 418 q 344 402 331 410 q 360 392 357 394 q 379 383 364 390 q 396 375 394 375 m 782 818 l 564 818 q 529 878 556 856 q 465 901 503 901 q 410 882 433 901 q 388 831 388 863 q 394 799 388 814 q 408 774 401 783 q 433 753 415 765 q 459 737 451 742 q 490 722 467 732 q 517 708 513 711 l 671 631 q 826 528 776 579 q 875 378 875 476 q 758 160 875 253 q 829 -21 829 97 q 776 -187 829 -117 q 642 -288 722 -257 q 467 -319 561 -319 q 278 -285 365 -319 q 135 -176 192 -251 q 82 4 78 -100 l 336 4 q 377 -85 335 -49 q 472 -122 419 -122 q 547 -97 517 -122 q 578 -29 578 -72 q 575 -3 578 -15 q 563 19 572 8 q 548 35 553 29 q 527 51 543 42 q 507 63 511 60 q 483 75 503 65 q 461 85 463 85 l 242 192 q 79 421 79 272 q 199 647 79 547 q 153 721 169 675 q 136 810 136 767 q 230 1005 136 935 q 453 1075 324 1075 q 573 1060 517 1075 q 676 1016 629 1046 q 751 935 722 986 q 782 818 779 885 z "},"¤":{"ha":957,"x_min":7,"x_max":964,"o":"m 964 1004 q 825 1053 925 1036 q 674 1067 750 1067 q 328 954 467 1067 q 149 656 189 844 l 40 656 l 7 550 l 135 550 l 135 522 q 138 465 135 501 l 40 465 l 7 360 l 153 360 q 333 69 196 176 q 682 -42 476 -42 q 886 -6 801 -42 l 886 254 q 786 213 849 231 q 688 194 728 194 q 425 360 503 194 l 788 360 l 821 465 l 394 465 q 390 521 390 492 q 392 550 390 540 l 842 550 l 868 656 l 414 656 q 683 831 483 831 q 801 810 736 831 q 899 763 867 788 l 964 1004 z "},"'":{"ha":347,"x_min":56,"x_max":292,"o":"m 56 1047 l 292 1047 l 254 588 l 93 588 l 56 1047 z "},"“":{"ha":872,"x_min":26,"x_max":799,"o":"m 618 588 l 382 588 l 638 1047 l 799 1047 l 618 588 m 263 588 l 26 588 l 282 1047 l 443 1047 l 263 588 z "},"«":{"ha":838,"x_min":36,"x_max":764,"o":"m 585 444 l 764 203 l 621 103 l 382 444 l 621 786 l 760 690 l 585 444 m 239 444 l 418 203 l 275 103 l 36 444 l 275 786 l 414 690 l 239 444 z "},"‹":{"ha":492,"x_min":36,"x_max":418,"o":"m 239 444 l 418 203 l 275 103 l 36 444 l 275 786 l 414 690 l 239 444 z "},"›":{"ha":492,"x_min":74,"x_max":456,"o":"m 74 203 l 253 444 l 78 690 l 217 786 l 456 444 l 217 103 l 74 203 z "},"ﬁ":{"ha":943,"x_min":11,"x_max":875,"o":"m 353 504 l 353 0 l 100 0 l 100 504 l 11 504 l 11 713 l 100 713 l 100 803 q 113 945 100 892 q 172 1053 125 999 q 421 1167 269 1167 q 529 1142 481 1167 l 529 924 q 440 947 474 947 q 373 919 393 947 q 353 828 353 890 l 353 713 l 529 713 l 529 504 l 353 504 m 860 713 l 860 0 l 607 0 l 607 713 l 860 713 m 633 1086 q 654 1107 633 1086 q 733 1128 675 1128 q 833 1086 792 1128 q 875 986 875 1044 q 833 886 875 928 q 733 844 792 844 q 633 886 675 844 q 592 986 592 928 q 633 1086 592 1044 z "},"ﬂ":{"ha":958,"x_min":11,"x_max":875,"o":"m 875 1153 l 875 0 l 622 0 l 622 1153 l 875 1153 m 353 504 l 353 0 l 100 0 l 100 504 l 11 504 l 11 713 l 100 713 l 100 803 q 113 945 100 892 q 172 1053 125 999 q 421 1167 269 1167 q 529 1142 481 1167 l 529 924 q 440 947 474 947 q 373 919 393 947 q 353 828 353 890 l 353 713 l 529 713 l 529 504 l 353 504 z "},"–":{"ha":694,"x_min":0,"x_max":694,"o":"m 0 550 l 694 550 l 694 342 l 0 342 l 0 550 z "},"†":{"ha":953,"x_min":117,"x_max":838,"o":"m 361 1047 l 592 1047 l 592 763 l 838 763 l 838 563 l 592 563 l 592 -250 l 361 -250 l 361 563 l 117 563 l 117 763 l 361 763 l 361 1047 z "},"‡":{"ha":953,"x_min":117,"x_max":838,"o":"m 363 1047 l 593 1047 l 593 790 l 838 790 l 838 590 l 593 590 l 593 393 l 838 393 l 838 193 l 593 193 l 593 -249 l 363 -249 l 363 193 l 117 193 l 117 393 l 363 393 l 363 590 l 117 590 l 117 790 l 363 790 l 363 1047 z "},"·":{"ha":476,"x_min":76,"x_max":401,"o":"m 124 471 q 147 494 124 471 q 239 518 171 518 q 354 471 307 518 q 401 356 401 424 q 354 241 401 289 q 239 193 307 193 q 124 241 171 193 q 76 356 76 289 q 124 471 76 424 z "},"¶":{"ha":953,"x_min":67,"x_max":889,"o":"m 365 1047 l 889 1047 l 889 921 l 797 921 l 797 -236 l 657 -236 l 657 919 l 528 919 l 528 -236 l 388 -236 l 388 403 q 168 483 253 415 q 67 701 83 551 q 148 938 53 828 q 365 1047 243 1047 z "},"•":{"ha":953,"x_min":215,"x_max":739,"o":"m 291 710 q 329 748 291 710 q 478 786 367 786 q 664 710 589 786 q 739 524 739 633 q 664 339 739 415 q 478 263 589 263 q 291 339 367 263 q 215 524 215 415 q 291 710 215 633 z "},"‚":{"ha":469,"x_min":26,"x_max":443,"o":"m 207 265 l 443 265 l 188 -194 l 26 -194 l 207 265 z "},"„":{"ha":825,"x_min":26,"x_max":799,"o":"m 207 265 l 443 265 l 188 -194 l 26 -194 l 207 265 m 563 265 l 799 265 l 543 -194 l 382 -194 l 563 265 z "},"”":{"ha":872,"x_min":74,"x_max":846,"o":"m 254 1047 l 490 1047 l 235 588 l 74 588 l 254 1047 m 610 1047 l 846 1047 l 590 588 l 429 588 l 610 1047 z "},"»":{"ha":838,"x_min":74,"x_max":801,"o":"m 74 203 l 253 444 l 78 690 l 217 786 l 456 444 l 217 103 l 74 203 m 419 203 l 599 444 l 424 690 l 563 786 l 801 444 l 563 103 l 419 203 z "},"…":{"ha":1389,"x_min":69,"x_max":1319,"o":"m 579 250 q 603 274 579 250 q 694 297 626 297 q 810 250 763 297 q 857 135 857 203 q 810 20 857 68 q 694 -28 763 -28 q 579 20 626 -28 q 532 135 532 68 q 579 250 532 203 m 1042 250 q 1065 274 1042 250 q 1157 297 1089 297 q 1272 250 1225 297 q 1319 135 1319 203 q 1272 20 1319 68 q 1157 -28 1225 -28 q 1042 20 1089 -28 q 994 135 994 68 q 1042 250 994 203 m 117 250 q 140 274 117 250 q 232 297 164 297 q 347 250 300 297 q 394 135 394 203 q 347 20 394 68 q 232 -28 300 -28 q 117 20 164 -28 q 69 135 69 68 q 117 250 69 203 z "},"‰":{"ha":2028,"x_min":26,"x_max":2001,"o":"m 108 994 q 149 1027 108 994 q 313 1061 190 1061 q 517 994 435 1061 q 599 807 599 926 q 518 617 599 685 q 313 549 438 549 q 107 617 188 549 q 26 807 26 685 q 108 994 26 926 m 396 888 q 378 905 396 888 q 313 922 361 922 q 229 888 264 922 q 194 804 194 853 q 229 722 194 756 q 313 688 264 688 q 396 722 361 688 q 431 804 431 756 q 396 888 431 853 m 913 1047 l 1049 1047 l 440 0 l 304 0 l 913 1047 m 838 431 q 878 465 838 431 q 1042 499 919 499 q 1246 431 1164 499 q 1328 244 1328 364 q 1247 54 1328 122 q 1042 -14 1167 -14 q 836 54 917 -14 q 756 244 756 122 q 838 431 756 364 m 1125 325 q 1108 342 1125 325 q 1042 360 1090 360 q 958 325 993 360 q 924 242 924 290 q 958 159 924 193 q 1042 125 993 125 q 1125 159 1090 125 q 1160 242 1160 193 q 1125 325 1160 290 m 1511 431 q 1552 465 1511 431 q 1715 499 1593 499 q 1919 431 1838 499 q 2001 244 2001 364 q 1921 54 2001 122 q 1715 -14 1840 -14 q 1510 54 1590 -14 q 1429 244 1429 122 q 1511 431 1429 364 m 1799 325 q 1781 342 1799 325 q 1715 360 1764 360 q 1632 325 1667 360 q 1597 242 1597 290 q 1632 159 1597 193 q 1715 125 1667 125 q 1799 159 1764 125 q 1833 242 1833 193 q 1799 325 1833 290 z "},"¿":{"ha":826,"x_min":63,"x_max":806,"o":"m 568 358 l 568 89 q 510 96 536 96 q 387 59 443 96 q 331 -42 331 22 q 360 -115 331 -85 q 432 -146 389 -146 q 503 -117 478 -146 q 529 -40 529 -87 l 806 -40 q 692 -279 804 -192 q 425 -367 581 -367 q 182 -281 282 -367 q 95 -172 128 -236 q 63 -40 63 -107 q 131 148 63 72 q 314 260 200 224 l 314 358 l 568 358 m 321 692 q 344 715 321 692 q 436 739 368 739 q 551 692 504 739 q 599 576 599 644 q 551 462 599 510 q 436 414 504 414 q 321 462 368 414 q 274 576 274 510 q 321 692 274 644 z "},"`":{"ha":558,"x_min":104,"x_max":454,"o":"m 104 1028 l 258 1139 l 454 900 l 342 818 l 104 1028 z "},"´":{"ha":558,"x_min":104,"x_max":454,"o":"m 454 1028 l 217 818 l 104 900 l 300 1139 l 454 1028 z "},"ˆ":{"ha":819,"x_min":104,"x_max":714,"o":"m 104 924 l 407 1151 l 714 924 l 607 807 l 407 961 l 207 807 l 104 924 z "},"˜":{"ha":763,"x_min":104,"x_max":658,"o":"m 219 856 l 106 856 l 104 871 q 135 994 104 943 q 258 1072 181 1072 q 377 1049 296 1072 q 485 1025 458 1025 q 519 1037 508 1025 q 540 1075 531 1049 l 658 1075 q 606 922 651 989 q 478 856 560 856 q 370 881 442 856 q 267 907 299 907 q 241 898 251 907 q 228 882 231 889 q 219 856 225 875 z "},"¯":{"ha":838,"x_min":104,"x_max":732,"o":"m 104 1044 l 732 1044 l 732 896 l 104 896 l 104 1044 z "},"˘":{"ha":749,"x_min":104,"x_max":643,"o":"m 104 1089 l 260 1089 q 297 1020 267 1044 q 374 996 328 996 q 451 1020 419 996 q 489 1089 482 1044 l 643 1089 q 563 916 638 978 q 374 854 489 854 q 184 916 258 854 q 104 1089 110 978 z "},"˙":{"ha":558,"x_min":143,"x_max":417,"o":"m 281 1111 q 376 1071 336 1111 q 417 975 417 1031 q 377 878 417 918 q 281 839 338 839 q 183 878 224 839 q 143 975 143 918 q 183 1072 143 1032 q 281 1111 224 1111 z "},"¨":{"ha":839,"x_min":104,"x_max":733,"o":"m 242 1111 q 338 1071 297 1111 q 378 975 378 1031 q 338 878 378 918 q 242 839 299 839 q 144 878 185 839 q 104 975 104 918 q 144 1072 104 1032 q 242 1111 185 1111 m 597 1111 q 693 1071 653 1111 q 733 975 733 1031 q 694 878 733 918 q 597 839 654 839 q 500 878 540 839 q 460 975 460 918 q 500 1072 460 1032 q 597 1111 540 1111 z "},"˚":{"ha":635,"x_min":104,"x_max":531,"o":"m 315 1132 q 468 1094 406 1132 q 531 972 531 1056 q 469 851 531 890 q 319 813 407 813 q 167 850 231 813 q 104 971 104 888 q 165 1093 104 1054 q 315 1132 226 1132 m 318 1032 q 260 1017 285 1032 q 236 972 236 1003 q 260 927 236 942 q 318 913 285 913 q 374 927 350 913 q 399 972 399 942 q 374 1017 399 1003 q 318 1032 350 1032 z "},"¸":{"ha":528,"x_min":104,"x_max":422,"o":"m 422 -131 l 213 -329 l 104 -261 l 285 -42 l 422 -131 z "},"˝":{"ha":749,"x_min":154,"x_max":594,"o":"m 353 1131 l 283 833 l 154 833 l 174 1131 l 353 1131 m 594 1131 l 525 833 l 396 833 l 415 1131 l 594 1131 z "},"˛":{"ha":486,"x_min":104,"x_max":381,"o":"m 221 0 l 325 0 l 325 -3 q 242 -106 242 -50 q 260 -151 242 -132 q 306 -169 279 -169 q 381 -143 336 -169 l 350 -271 q 239 -297 307 -297 q 146 -262 188 -297 q 104 -178 104 -228 q 137 -77 104 -124 q 221 0 169 -31 z "},"ˇ":{"ha":819,"x_min":104,"x_max":714,"o":"m 104 1033 l 207 1151 l 407 996 l 607 1151 l 714 1033 l 407 807 l 104 1033 z "},"—":{"ha":1389,"x_min":181,"x_max":1208,"o":"m 181 550 l 1208 550 l 1208 342 l 181 342 l 181 550 z "},"Æ":{"ha":1425,"x_min":-6,"x_max":1425,"o":"m 653 390 l 540 701 l 422 390 l 653 390 m 794 0 l 726 182 l 347 182 l 282 0 l -6 0 l 399 1047 l 1040 1047 l 1125 817 l 781 817 l 844 642 l 1188 642 l 1275 411 l 929 411 l 997 231 l 1342 231 l 1425 0 l 794 0 z "},"ª":{"ha":568,"x_min":15,"x_max":554,"o":"m 215 778 q 231 764 215 778 q 290 750 246 750 q 365 778 335 750 q 396 847 396 807 q 365 916 396 888 q 290 944 335 944 q 215 916 246 944 q 185 847 185 888 q 215 778 185 807 m 390 633 l 390 681 l 388 681 q 249 619 347 619 q 81 686 147 619 q 15 847 15 753 q 81 1008 15 942 q 247 1075 146 1075 q 390 1019 339 1075 l 390 1061 l 554 1061 l 554 633 l 390 633 z "},"Ł":{"ha":740,"x_min":26,"x_max":740,"o":"m 26 324 l 26 521 l 142 594 l 142 1047 l 414 1047 l 414 769 l 571 869 l 571 667 l 414 568 l 414 231 l 740 231 l 740 0 l 142 0 l 142 396 l 26 324 z "},"Ø":{"ha":1232,"x_min":29,"x_max":1203,"o":"m 361 382 l 764 778 q 615 818 694 818 q 407 735 494 818 q 319 542 319 651 q 361 382 319 450 m 875 668 l 468 269 q 615 229 533 229 q 825 319 739 229 q 911 542 911 408 q 875 668 911 611 m 29 56 l 154 179 q 36 543 36 332 q 118 822 36 697 q 332 1015 200 947 q 615 1082 464 1082 q 963 974 807 1082 l 1094 1103 l 1203 992 l 1078 868 q 1194 543 1194 729 q 1031 127 1194 289 q 615 -35 868 -35 q 267 72 414 -35 l 138 -56 l 29 56 z "},"Œ":{"ha":1583,"x_min":36,"x_max":1506,"o":"m 917 0 l 917 115 q 583 -35 779 -35 q 310 42 436 -35 q 110 248 183 119 q 36 524 36 376 q 110 799 36 671 q 310 1005 183 928 q 583 1082 436 1082 q 917 951 786 1082 l 917 1047 l 1506 1047 l 1506 817 l 1188 817 l 1188 642 l 1483 642 l 1483 411 l 1188 411 l 1188 231 l 1506 231 l 1506 0 l 917 0 m 613 818 q 406 732 492 818 q 319 524 319 646 q 406 316 319 403 q 613 229 492 229 q 819 316 733 229 q 904 524 904 403 q 819 732 904 646 q 613 818 735 818 z "},"º":{"ha":569,"x_min":7,"x_max":564,"o":"m 88 1014 q 128 1044 88 1014 q 285 1075 168 1075 q 483 1014 401 1075 q 564 847 564 953 q 483 681 564 742 q 285 619 401 619 q 88 681 168 619 q 7 847 7 742 q 88 1014 7 953 m 359 915 q 343 929 359 915 q 285 943 328 943 q 211 915 242 943 q 181 847 181 888 q 210 779 181 807 q 285 751 240 751 q 360 779 329 751 q 390 847 390 807 q 359 915 390 888 z "},"æ":{"ha":1306,"x_min":29,"x_max":1275,"o":"m 751 460 l 1044 460 q 994 541 1035 510 q 901 572 954 572 q 803 543 844 572 q 751 460 763 514 m 381 303 q 308 283 340 303 q 275 226 275 264 q 310 169 275 188 q 389 150 346 150 q 473 169 431 150 q 515 225 515 188 q 472 285 515 267 q 381 303 429 303 m 1275 314 l 743 314 q 901 156 743 156 q 1022 221 983 156 l 1265 221 q 1135 39 1236 101 q 903 -24 1033 -24 q 728 10 808 -24 q 617 117 649 43 q 488 14 565 51 q 328 -24 411 -24 q 190 0 256 -24 q 76 78 124 24 q 29 206 29 132 q 114 384 29 325 q 322 443 199 443 q 510 407 422 443 l 510 428 q 340 553 510 553 q 142 514 264 553 l 142 703 q 349 736 265 736 q 617 610 551 736 q 731 703 657 671 q 885 736 804 736 q 1172 630 1069 736 q 1275 340 1275 524 l 1275 314 z "},"ı":{"ha":419,"x_min":83,"x_max":336,"o":"m 336 713 l 336 0 l 83 0 l 83 713 l 336 713 z "},"ł":{"ha":508,"x_min":11,"x_max":497,"o":"m 128 0 l 128 460 l 11 389 l 11 561 l 128 633 l 128 1153 l 381 1153 l 381 783 l 497 854 l 497 681 l 381 610 l 381 0 l 128 0 z "},"ø":{"ha":919,"x_min":29,"x_max":890,"o":"m 307 297 l 519 507 q 460 517 490 517 q 341 470 385 517 q 297 356 297 424 q 307 297 297 321 m 613 415 l 400 206 q 460 196 425 196 q 578 241 535 196 q 622 356 622 286 q 613 415 622 388 m 29 22 l 121 113 q 31 356 31 211 q 155 633 31 531 q 460 736 279 736 q 694 681 590 736 l 793 778 l 890 692 l 799 600 q 889 356 889 499 q 765 78 889 181 q 460 -24 640 -24 q 225 32 328 -24 l 126 -65 l 29 22 z "},"œ":{"ha":1419,"x_min":29,"x_max":1390,"o":"m 858 460 l 1151 460 q 1101 541 1142 510 q 1008 572 1061 572 q 910 543 951 572 q 858 460 869 514 m 573 469 q 549 493 573 469 q 458 517 525 517 q 344 469 392 517 q 296 356 296 421 q 344 242 296 289 q 458 196 392 196 q 573 242 525 196 q 621 356 621 289 q 573 469 621 421 m 1390 340 l 1390 314 l 858 314 q 1017 156 858 156 q 1138 221 1099 156 l 1381 221 q 1250 39 1351 101 q 1018 -24 1149 -24 q 729 100 817 -24 q 601 4 668 32 q 440 -24 535 -24 q 144 77 260 -24 q 29 356 29 178 q 144 633 29 531 q 438 736 260 736 q 599 713 531 736 q 729 629 667 689 q 1000 736 811 736 q 1288 630 1185 736 q 1390 340 1390 524 z "},"ß":{"ha":904,"x_min":11,"x_max":874,"o":"m 83 614 l 83 818 q 169 1075 83 999 q 444 1167 268 1167 q 692 1086 593 1167 q 790 860 790 1006 q 760 739 790 789 q 667 642 729 689 q 824 532 774 599 q 874 346 874 465 q 845 191 874 268 q 763 68 817 114 q 464 -24 658 -24 l 410 -24 l 410 192 q 544 235 490 189 q 597 360 597 281 q 542 486 597 438 q 410 529 488 535 l 410 731 q 510 756 472 728 q 547 843 547 783 q 519 920 547 892 q 442 949 490 949 q 383 936 406 949 q 351 897 360 924 q 339 849 342 871 q 336 790 336 826 l 336 0 l 83 0 l 83 413 l 11 413 l 11 614 l 83 614 z "},"÷":{"ha":953,"x_min":121,"x_max":832,"o":"m 121 461 l 832 461 l 832 253 l 121 253 l 121 461 m 406 147 q 420 162 406 147 q 476 176 435 176 q 547 147 518 176 q 576 76 576 118 q 547 6 576 35 q 476 -24 518 -24 q 406 6 435 -24 q 376 76 376 35 q 406 147 376 118 m 406 708 q 420 723 406 708 q 476 738 435 738 q 547 708 518 738 q 576 638 576 679 q 547 567 576 596 q 476 538 518 538 q 406 567 435 538 q 376 638 376 596 q 406 708 376 679 z "},"¾":{"ha":1429,"x_min":69,"x_max":1360,"o":"m 1278 256 l 1360 256 l 1360 131 l 1278 131 l 1278 0 l 1114 0 l 1114 131 l 783 131 l 783 235 l 1046 628 l 1278 628 l 1278 256 m 1114 254 l 1114 496 l 1111 496 l 953 254 l 1114 254 m 1015 1047 l 1151 1047 l 543 0 l 407 0 l 1015 1047 m 314 782 l 332 782 q 388 801 367 782 q 410 851 410 819 q 390 897 410 879 q 340 914 371 914 q 288 893 308 914 q 268 842 268 872 l 104 842 q 182 993 114 939 q 357 1047 250 1047 q 513 999 451 1047 q 575 865 575 950 q 503 736 575 774 q 584 677 554 725 q 614 578 614 629 q 536 426 614 481 q 350 371 458 371 q 147 442 222 371 q 91 516 114 472 q 69 599 68 560 l 250 599 q 276 536 250 560 q 344 511 304 511 q 413 534 386 511 q 439 594 439 557 q 411 653 439 629 q 346 678 383 678 q 335 677 340 678 q 324 675 331 676 q 314 674 318 674 l 314 782 z "},"¼":{"ha":1429,"x_min":139,"x_max":1290,"o":"m 236 910 l 139 910 l 139 1047 l 413 1047 l 413 419 l 236 419 l 236 910 m 1208 256 l 1290 256 l 1290 131 l 1208 131 l 1208 0 l 1044 0 l 1044 131 l 714 131 l 714 235 l 976 628 l 1208 628 l 1208 256 m 1044 254 l 1044 496 l 1042 496 l 883 254 l 1044 254 m 896 1047 l 1032 1047 l 424 0 l 288 0 l 896 1047 z "},"¹":{"ha":572,"x_min":129,"x_max":403,"o":"m 226 926 l 129 926 l 129 1064 l 403 1064 l 403 436 l 226 436 l 226 926 z "},"×":{"ha":953,"x_min":121,"x_max":832,"o":"m 331 356 l 121 565 l 268 713 l 476 501 l 683 713 l 831 565 l 624 356 l 832 147 l 685 0 l 476 208 l 268 0 l 121 147 l 331 356 z "},"®":{"ha":1111,"x_min":6,"x_max":1106,"o":"m 945 133 q 865 53 945 133 q 556 -28 785 -28 q 166 133 326 -28 q 6 522 6 293 q 165 914 6 753 q 556 1075 325 1075 q 945 914 785 1075 q 1106 522 1106 753 q 945 133 1106 294 m 556 103 q 855 222 735 103 q 975 522 975 340 q 855 825 975 706 q 556 944 735 944 q 256 826 375 944 q 136 522 136 707 q 256 222 136 340 q 556 103 375 103 m 681 485 l 819 243 l 681 243 l 553 485 l 464 485 l 464 243 l 336 243 l 336 815 l 614 815 q 781 781 726 815 q 836 640 836 746 q 797 526 836 563 q 681 485 758 490 m 464 571 l 617 571 q 693 588 669 571 q 717 657 717 606 q 706 690 717 678 q 672 708 694 703 q 633 714 649 713 q 588 715 617 715 l 464 715 l 464 571 z "},"Þ":{"ha":918,"x_min":89,"x_max":886,"o":"m 89 0 l 89 1047 l 361 1047 l 361 881 l 506 881 q 784 795 682 881 q 886 536 886 710 q 515 181 886 181 l 361 181 l 361 0 l 89 0 m 361 661 l 361 400 l 407 400 q 466 401 446 400 q 517 408 486 401 q 564 428 549 415 q 591 465 579 440 q 603 528 603 490 q 592 592 603 567 q 565 632 581 618 q 520 652 550 646 q 469 660 490 658 q 407 661 447 661 l 361 661 z "},"¦":{"ha":804,"x_min":299,"x_max":507,"o":"m 507 224 l 507 -124 l 299 -124 l 299 224 l 507 224 m 507 918 l 507 571 l 299 571 l 299 918 l 507 918 z "},"Ð":{"ha":1044,"x_min":-28,"x_max":1007,"o":"m 361 817 l 361 643 l 514 643 l 514 429 l 361 429 l 361 231 l 422 231 q 638 304 553 231 q 724 524 724 378 q 642 739 724 661 q 425 817 560 817 l 361 817 m 89 0 l 89 429 l -28 429 l -28 643 l 89 643 l 89 1047 l 442 1047 q 848 900 689 1047 q 1007 524 1007 753 q 846 148 1007 296 q 444 0 685 0 l 89 0 z "},"½":{"ha":1429,"x_min":139,"x_max":1290,"o":"m 236 910 l 139 910 l 139 1047 l 413 1047 l 413 419 l 236 419 l 236 910 m 1174 229 l 1068 138 l 1290 138 l 1290 0 l 743 0 l 1022 279 q 1100 433 1100 357 q 1078 489 1100 464 q 1022 514 1056 514 q 967 492 988 514 q 947 438 947 471 q 950 411 947 431 l 756 411 q 831 587 760 521 q 1021 653 901 653 q 1208 591 1132 653 q 1283 429 1283 529 q 1257 321 1283 365 q 1174 229 1231 276 m 857 1047 l 993 1047 l 385 0 l 249 0 l 857 1047 z "},"−":{"ha":953,"x_min":121,"x_max":832,"o":"m 121 461 l 832 461 l 832 253 l 121 253 l 121 461 z "},"ç":{"ha":671,"x_min":32,"x_max":597,"o":"m 597 694 l 597 481 q 467 531 529 531 q 343 481 393 531 q 293 357 293 431 q 343 231 293 281 q 471 182 393 182 q 597 231 544 182 l 597 17 q 419 -24 517 -24 q 145 83 258 -24 q 32 349 32 189 q 147 627 32 518 q 431 736 261 736 q 597 694 522 736 m 494 -131 l 285 -329 l 176 -261 l 357 -42 l 494 -131 z "},"ð":{"ha":919,"x_min":31,"x_max":889,"o":"m 57 1033 l 204 1178 q 424 1063 356 1107 l 600 1156 l 690 1054 l 546 978 q 651 887 610 924 q 742 792 692 850 q 820 683 792 735 q 869 560 849 631 q 889 413 889 489 q 852 215 889 301 q 753 78 815 129 q 614 2 690 28 q 451 -24 538 -24 q 310 -1 382 -24 q 175 65 239 21 q 71 184 111 108 q 31 354 31 260 q 146 619 31 518 q 410 719 261 719 q 492 711 444 719 q 335 867 421 799 l 154 771 l 63 869 l 214 950 q 57 1033 135 1000 m 578 470 q 557 493 578 470 q 460 517 535 517 q 341 470 385 517 q 297 356 297 424 q 341 241 297 286 q 460 196 385 196 q 578 241 535 196 q 622 356 622 286 q 578 470 622 424 z "},"±":{"ha":953,"x_min":121,"x_max":832,"o":"m 372 711 l 372 908 l 581 908 l 581 711 l 832 711 l 832 503 l 581 503 l 581 306 l 372 306 l 372 503 l 121 503 l 121 711 l 372 711 m 121 208 l 832 208 l 832 0 l 121 0 l 121 208 z "},"Ç":{"ha":917,"x_min":36,"x_max":838,"o":"m 838 1022 l 838 696 q 733 781 796 751 q 599 811 669 811 q 397 728 475 811 q 319 521 319 644 q 398 316 319 396 q 603 236 476 236 q 732 266 669 236 q 838 347 794 296 l 838 21 q 597 -28 679 -28 q 204 126 374 -28 q 36 522 36 278 q 190 906 36 747 q 374 1030 268 985 q 589 1075 479 1075 q 838 1022 710 1075 m 651 -131 l 442 -329 l 333 -261 l 514 -42 l 651 -131 z "},"þ":{"ha":947,"x_min":75,"x_max":906,"o":"m 328 1153 l 328 632 l 331 632 q 422 710 364 683 q 546 736 481 736 q 803 624 701 736 q 906 354 906 511 q 805 87 906 197 q 549 -24 704 -24 q 328 68 407 -24 l 328 -356 l 75 -356 l 75 1153 l 328 1153 m 601 470 q 579 493 601 470 q 482 517 557 517 q 363 470 407 517 q 319 356 319 424 q 363 241 319 286 q 482 196 407 196 q 601 241 557 196 q 644 356 644 286 q 601 470 644 424 z "},"©":{"ha":1111,"x_min":6,"x_max":1106,"o":"m 945 133 q 865 53 945 133 q 556 -28 785 -28 q 166 133 326 -28 q 6 522 6 293 q 165 914 6 753 q 556 1075 325 1075 q 945 914 785 1075 q 1106 522 1106 753 q 945 133 1106 294 m 556 103 q 855 222 735 103 q 975 522 975 340 q 855 825 975 706 q 556 944 735 944 q 256 826 375 944 q 136 522 136 707 q 256 222 136 340 q 556 103 375 103 m 836 638 l 711 638 q 665 713 703 686 q 575 739 628 739 q 450 678 496 739 q 404 531 404 617 q 453 383 404 447 q 579 318 503 318 q 669 347 631 318 q 711 425 708 376 l 836 425 q 751 269 825 328 q 579 211 678 211 q 358 302 443 211 q 274 528 274 393 q 356 757 274 668 q 576 846 438 846 q 748 790 676 846 q 836 638 819 733 z "},"¬":{"ha":953,"x_min":121,"x_max":832,"o":"m 624 196 l 624 419 l 121 419 l 121 628 l 832 628 l 832 196 l 624 196 z "},"²":{"ha":572,"x_min":4,"x_max":551,"o":"m 435 665 l 329 574 l 551 574 l 551 436 l 4 436 l 283 715 q 361 869 361 793 q 339 925 361 900 q 283 950 317 950 q 228 928 249 950 q 208 874 208 907 q 211 847 208 867 l 17 847 q 92 1023 21 957 q 282 1089 163 1089 q 469 1027 393 1089 q 544 865 544 965 q 518 757 544 801 q 435 665 492 713 z "},"³":{"ha":572,"x_min":6,"x_max":550,"o":"m 6 640 l 186 640 q 213 578 186 603 q 281 553 239 553 q 349 576 322 553 q 375 636 375 599 q 347 695 375 671 q 282 719 319 719 q 272 719 276 719 q 260 717 267 718 q 250 715 254 715 l 250 824 l 268 824 q 324 842 303 824 q 346 893 346 861 q 326 938 346 921 q 276 956 307 956 q 224 935 244 956 q 204 883 204 914 l 40 883 q 118 1035 50 981 q 293 1089 186 1089 q 449 1040 388 1089 q 511 907 511 992 q 439 778 511 815 q 520 719 490 767 q 550 619 550 671 q 472 467 550 522 q 286 413 394 413 q 83 483 158 413 q 27 558 50 514 q 6 640 4 601 z "},"™":{"ha":1306,"x_min":57,"x_max":1249,"o":"m 1249 1047 l 1249 486 l 1126 486 l 1126 939 l 1124 939 l 961 486 l 889 486 l 726 939 l 724 939 l 724 486 l 601 486 l 601 1047 l 799 1047 l 925 715 l 1051 1047 l 1249 1047 m 533 1047 l 533 939 l 363 939 l 363 486 l 228 486 l 228 939 l 57 939 l 57 1047 l 533 1047 z "},"°":{"ha":556,"x_min":69,"x_max":486,"o":"m 486 865 q 424 719 486 781 q 276 658 363 658 q 129 719 189 658 q 69 865 69 779 q 128 1013 67 951 q 276 1075 189 1075 q 424 1013 363 1075 q 486 865 486 951 m 368 867 q 341 930 368 903 q 276 957 314 957 q 213 930 240 957 q 188 867 186 903 q 214 803 188 829 q 278 776 240 776 q 342 803 315 776 q 368 867 368 829 z "},"μ":{"ha":915,"x_min":79,"x_max":838,"o":"m 79 713 l 332 713 l 332 332 q 359 217 332 257 q 458 178 386 178 q 558 217 531 178 q 585 332 585 257 l 585 713 l 838 713 l 838 283 q 806 134 838 197 q 724 38 775 71 q 620 -9 672 6 q 514 -24 568 -24 q 332 44 403 -24 l 332 -356 l 79 -356 l 79 713 z "},"Á":{"ha":1085,"x_min":-6,"x_max":1089,"o":"m 731 182 l 356 182 l 283 0 l -6 0 l 397 1047 l 694 1047 l 1089 0 l 799 0 l 731 182 m 657 390 l 546 724 l 543 724 l 431 390 l 657 390 m 746 1321 l 508 1111 l 396 1193 l 592 1432 l 746 1321 z "},"Â":{"ha":1085,"x_min":-6,"x_max":1089,"o":"m 731 182 l 356 182 l 283 0 l -6 0 l 397 1047 l 694 1047 l 1089 0 l 799 0 l 731 182 m 657 390 l 546 724 l 543 724 l 431 390 l 657 390 m 238 1217 l 540 1444 l 847 1217 l 740 1100 l 540 1254 l 340 1100 l 238 1217 z "},"Ä":{"ha":1085,"x_min":-6,"x_max":1089,"o":"m 731 182 l 356 182 l 283 0 l -6 0 l 397 1047 l 694 1047 l 1089 0 l 799 0 l 731 182 m 657 390 l 546 724 l 543 724 l 431 390 l 657 390 m 268 1365 q 288 1384 268 1365 q 365 1404 308 1404 q 462 1365 422 1404 q 501 1268 501 1325 q 462 1172 501 1211 q 365 1132 422 1132 q 268 1172 308 1132 q 228 1268 228 1211 q 268 1365 228 1325 m 624 1365 q 644 1384 624 1365 q 721 1404 664 1404 q 817 1365 778 1404 q 857 1268 857 1325 q 817 1172 857 1211 q 721 1132 778 1132 q 624 1172 664 1132 q 583 1268 583 1211 q 624 1365 583 1325 z "},"À":{"ha":1085,"x_min":-6,"x_max":1089,"o":"m 731 182 l 356 182 l 283 0 l -6 0 l 397 1047 l 694 1047 l 1089 0 l 799 0 l 731 182 m 657 390 l 546 724 l 543 724 l 431 390 l 657 390 m 340 1321 l 494 1432 l 690 1193 l 578 1111 l 340 1321 z "},"Å":{"ha":1085,"x_min":-6,"x_max":1089,"o":"m 731 182 l 356 182 l 283 0 l -6 0 l 397 1047 l 694 1047 l 1089 0 l 799 0 l 731 182 m 657 390 l 546 724 l 543 724 l 431 390 l 657 390 m 540 1404 q 693 1366 631 1404 q 756 1244 756 1328 q 694 1124 756 1163 q 544 1085 632 1085 q 392 1122 456 1085 q 329 1243 329 1160 q 390 1365 329 1326 q 540 1404 451 1404 m 543 1304 q 485 1290 510 1304 q 461 1244 461 1275 q 485 1199 461 1214 q 543 1185 510 1185 q 599 1199 575 1185 q 624 1244 624 1214 q 599 1290 624 1275 q 543 1304 575 1304 z "},"Ã":{"ha":1085,"x_min":-6,"x_max":1089,"o":"m 731 182 l 356 182 l 283 0 l -6 0 l 397 1047 l 694 1047 l 1089 0 l 799 0 l 731 182 m 657 390 l 546 724 l 543 724 l 431 390 l 657 390 m 381 1149 l 267 1149 l 265 1164 q 296 1288 265 1236 q 419 1365 342 1365 q 538 1342 457 1365 q 646 1318 619 1318 q 681 1330 669 1318 q 701 1368 692 1342 l 819 1368 q 767 1215 813 1282 q 639 1149 721 1149 q 531 1174 603 1149 q 428 1200 460 1200 q 402 1191 413 1200 q 389 1175 392 1182 q 381 1149 386 1168 z "},"É":{"ha":764,"x_min":89,"x_max":685,"o":"m 685 817 l 361 817 l 361 642 l 668 642 l 668 411 l 361 411 l 361 231 l 685 231 l 685 0 l 89 0 l 89 1047 l 685 1047 l 685 817 m 557 1321 l 319 1111 l 207 1193 l 403 1432 l 557 1321 z "},"Ê":{"ha":764,"x_min":76,"x_max":686,"o":"m 685 817 l 361 817 l 361 642 l 668 642 l 668 411 l 361 411 l 361 231 l 685 231 l 685 0 l 89 0 l 89 1047 l 685 1047 l 685 817 m 76 1217 l 379 1444 l 686 1217 l 579 1100 l 379 1254 l 179 1100 l 76 1217 z "},"Ë":{"ha":764,"x_min":67,"x_max":696,"o":"m 685 817 l 361 817 l 361 642 l 668 642 l 668 411 l 361 411 l 361 231 l 685 231 l 685 0 l 89 0 l 89 1047 l 685 1047 l 685 817 m 107 1365 q 127 1384 107 1365 q 204 1404 147 1404 q 301 1365 261 1404 q 340 1268 340 1325 q 301 1172 340 1211 q 204 1132 261 1132 q 107 1172 147 1132 q 67 1268 67 1211 q 107 1365 67 1325 m 463 1365 q 483 1384 463 1365 q 560 1404 503 1404 q 656 1365 617 1404 q 696 1268 696 1325 q 656 1172 696 1211 q 560 1132 617 1132 q 463 1172 503 1132 q 422 1268 422 1211 q 463 1365 422 1325 z "},"È":{"ha":764,"x_min":89,"x_max":685,"o":"m 685 817 l 361 817 l 361 642 l 668 642 l 668 411 l 361 411 l 361 231 l 685 231 l 685 0 l 89 0 l 89 1047 l 685 1047 l 685 817 m 207 1321 l 361 1432 l 557 1193 l 444 1111 l 207 1321 z "},"Í":{"ha":450,"x_min":71,"x_max":421,"o":"m 361 1047 l 361 0 l 89 0 l 89 1047 l 361 1047 m 421 1321 l 183 1111 l 71 1193 l 267 1432 l 421 1321 z "},"Î":{"ha":450,"x_min":-60,"x_max":550,"o":"m 361 1047 l 361 0 l 89 0 l 89 1047 l 361 1047 m -60 1217 l 243 1444 l 550 1217 l 443 1100 l 243 1254 l 43 1100 l -60 1217 z "},"Ï":{"ha":450,"x_min":-90,"x_max":539,"o":"m 361 1047 l 361 0 l 89 0 l 89 1047 l 361 1047 m 47 1404 q 143 1365 103 1404 q 183 1268 183 1325 q 144 1172 183 1211 q 47 1132 104 1132 q -50 1172 -10 1132 q -90 1268 -90 1211 q -50 1365 -90 1325 q 47 1404 -10 1404 m 403 1404 q 499 1365 458 1404 q 539 1268 539 1325 q 499 1172 539 1211 q 403 1132 460 1132 q 306 1172 346 1132 q 265 1268 265 1211 q 306 1365 265 1325 q 403 1404 346 1404 z "},"Ì":{"ha":450,"x_min":29,"x_max":379,"o":"m 361 1047 l 361 0 l 89 0 l 89 1047 l 361 1047 m 29 1321 l 183 1432 l 379 1193 l 267 1111 l 29 1321 z "},"Ñ":{"ha":1224,"x_min":89,"x_max":1135,"o":"m 89 0 l 89 1047 l 361 1047 l 860 407 l 863 407 l 863 1047 l 1135 1047 l 1135 0 l 863 0 l 364 642 l 361 642 l 361 0 l 89 0 m 450 1149 l 336 1149 l 335 1164 q 365 1288 335 1236 q 489 1365 411 1365 q 608 1342 526 1365 q 715 1318 689 1318 q 750 1330 739 1318 q 771 1368 761 1342 l 889 1368 q 836 1215 882 1282 q 708 1149 790 1149 q 601 1174 672 1149 q 497 1200 529 1200 q 472 1191 482 1200 q 458 1175 461 1182 q 450 1149 456 1168 z "},"Ó":{"ha":1232,"x_min":36,"x_max":1194,"o":"m 332 1015 q 398 1048 332 1015 q 615 1082 464 1082 q 899 1015 767 1082 q 1113 822 1031 947 q 1194 543 1194 697 q 1031 127 1194 289 q 615 -35 868 -35 q 199 127 363 -35 q 36 543 36 289 q 118 822 36 697 q 332 1015 200 947 m 824 735 q 780 776 824 735 q 615 818 736 818 q 407 735 494 818 q 319 542 319 651 q 406 319 319 408 q 615 229 492 229 q 825 319 739 229 q 911 542 911 408 q 824 735 911 651 m 819 1321 l 582 1111 l 469 1193 l 665 1432 l 819 1321 z "},"Ô":{"ha":1232,"x_min":36,"x_max":1194,"o":"m 332 1015 q 398 1048 332 1015 q 615 1082 464 1082 q 899 1015 767 1082 q 1113 822 1031 947 q 1194 543 1194 697 q 1031 127 1194 289 q 615 -35 868 -35 q 199 127 363 -35 q 36 543 36 289 q 118 822 36 697 q 332 1015 200 947 m 824 735 q 780 776 824 735 q 615 818 736 818 q 407 735 494 818 q 319 542 319 651 q 406 319 319 408 q 615 229 492 229 q 825 319 739 229 q 911 542 911 408 q 824 735 911 651 m 311 1217 l 614 1444 l 921 1217 l 814 1100 l 614 1254 l 414 1100 l 311 1217 z "},"Ö":{"ha":1232,"x_min":36,"x_max":1194,"o":"m 332 1015 q 398 1048 332 1015 q 615 1082 464 1082 q 899 1015 767 1082 q 1113 822 1031 947 q 1194 543 1194 697 q 1031 127 1194 289 q 615 -35 868 -35 q 199 127 363 -35 q 36 543 36 289 q 118 822 36 697 q 332 1015 200 947 m 824 735 q 780 776 824 735 q 615 818 736 818 q 407 735 494 818 q 319 542 319 651 q 406 319 319 408 q 615 229 492 229 q 825 319 739 229 q 911 542 911 408 q 824 735 911 651 m 439 1404 q 535 1365 494 1404 q 575 1268 575 1325 q 535 1172 575 1211 q 439 1132 496 1132 q 342 1172 382 1132 q 301 1268 301 1211 q 342 1365 301 1325 q 439 1404 382 1404 m 794 1404 q 890 1365 850 1404 q 931 1268 931 1325 q 891 1172 931 1211 q 794 1132 851 1132 q 697 1172 738 1132 q 657 1268 657 1211 q 697 1365 657 1325 q 794 1404 738 1404 z "},"Ò":{"ha":1232,"x_min":36,"x_max":1194,"o":"m 332 1015 q 398 1048 332 1015 q 615 1082 464 1082 q 899 1015 767 1082 q 1113 822 1031 947 q 1194 543 1194 697 q 1031 127 1194 289 q 615 -35 868 -35 q 199 127 363 -35 q 36 543 36 289 q 118 822 36 697 q 332 1015 200 947 m 824 735 q 780 776 824 735 q 615 818 736 818 q 407 735 494 818 q 319 542 319 651 q 406 319 319 408 q 615 229 492 229 q 825 319 739 229 q 911 542 911 408 q 824 735 911 651 m 414 1321 l 568 1432 l 764 1193 l 651 1111 l 414 1321 z "},"Õ":{"ha":1232,"x_min":36,"x_max":1194,"o":"m 332 1015 q 398 1048 332 1015 q 615 1082 464 1082 q 899 1015 767 1082 q 1113 822 1031 947 q 1194 543 1194 697 q 1031 127 1194 289 q 615 -35 868 -35 q 199 127 363 -35 q 36 543 36 289 q 118 822 36 697 q 332 1015 200 947 m 824 735 q 780 776 824 735 q 615 818 736 818 q 407 735 494 818 q 319 542 319 651 q 406 319 319 408 q 615 229 492 229 q 825 319 739 229 q 911 542 911 408 q 824 735 911 651 m 454 1149 l 340 1149 l 339 1164 q 369 1288 339 1236 q 493 1365 415 1365 q 612 1342 531 1365 q 719 1318 693 1318 q 754 1330 743 1318 q 775 1368 765 1342 l 893 1368 q 840 1215 886 1282 q 713 1149 794 1149 q 605 1174 676 1149 q 501 1200 533 1200 q 476 1191 486 1200 q 463 1175 465 1182 q 454 1149 460 1168 z "},"Š":{"ha":856,"x_min":42,"x_max":815,"o":"m 772 989 l 664 778 q 483 847 581 847 q 403 824 440 847 q 367 760 367 800 q 390 710 367 732 q 433 679 413 688 q 488 660 453 671 l 557 639 q 747 537 679 603 q 815 353 815 471 q 707 71 815 163 q 410 -28 590 -28 q 42 92 213 -28 l 158 311 q 400 203 282 203 q 492 230 453 203 q 532 308 532 257 q 400 418 532 379 q 367 428 396 419 q 249 467 292 449 q 163 517 206 485 q 101 600 119 550 q 83 724 83 650 q 185 978 83 882 q 444 1075 286 1075 q 613 1051 524 1075 q 772 989 703 1028 m 122 1326 l 225 1444 l 425 1289 l 625 1444 l 732 1326 l 425 1100 l 122 1326 z "},"Ú":{"ha":1081,"x_min":83,"x_max":997,"o":"m 725 1047 l 997 1047 l 997 458 q 977 244 997 331 q 888 89 957 157 q 540 -28 769 -28 q 193 89 311 -28 q 103 244 124 157 q 83 458 83 331 l 83 1047 l 356 1047 l 356 496 q 358 413 356 446 q 370 338 360 379 q 399 271 381 296 q 454 228 418 246 q 540 211 490 211 q 626 228 590 211 q 681 271 663 246 q 710 338 700 296 q 723 413 721 379 q 725 496 725 446 l 725 1047 m 743 1321 l 506 1111 l 393 1193 l 589 1432 l 743 1321 z "},"Û":{"ha":1081,"x_min":83,"x_max":997,"o":"m 725 1047 l 997 1047 l 997 458 q 977 244 997 331 q 888 89 957 157 q 540 -28 769 -28 q 193 89 311 -28 q 103 244 124 157 q 83 458 83 331 l 83 1047 l 356 1047 l 356 496 q 358 413 356 446 q 370 338 360 379 q 399 271 381 296 q 454 228 418 246 q 540 211 490 211 q 626 228 590 211 q 681 271 663 246 q 710 338 700 296 q 723 413 721 379 q 725 496 725 446 l 725 1047 m 235 1217 l 538 1444 l 844 1217 l 738 1100 l 538 1254 l 338 1100 l 235 1217 z "},"Ü":{"ha":1081,"x_min":83,"x_max":997,"o":"m 725 1047 l 997 1047 l 997 458 q 977 244 997 331 q 888 89 957 157 q 540 -28 769 -28 q 193 89 311 -28 q 103 244 124 157 q 83 458 83 331 l 83 1047 l 356 1047 l 356 496 q 358 413 356 446 q 370 338 360 379 q 399 271 381 296 q 454 228 418 246 q 540 211 490 211 q 626 228 590 211 q 681 271 663 246 q 710 338 700 296 q 723 413 721 379 q 725 496 725 446 l 725 1047 m 265 1365 q 285 1384 265 1365 q 363 1404 306 1404 q 459 1365 419 1404 q 499 1268 499 1325 q 459 1172 499 1211 q 363 1132 419 1132 q 265 1172 306 1132 q 225 1268 225 1211 q 265 1365 225 1325 m 621 1365 q 641 1384 621 1365 q 718 1404 661 1404 q 815 1365 775 1404 q 854 1268 854 1325 q 815 1172 854 1211 q 718 1132 775 1132 q 621 1172 661 1132 q 581 1268 581 1211 q 621 1365 581 1325 z "},"Ù":{"ha":1081,"x_min":83,"x_max":997,"o":"m 725 1047 l 997 1047 l 997 458 q 977 244 997 331 q 888 89 957 157 q 540 -28 769 -28 q 193 89 311 -28 q 103 244 124 157 q 83 458 83 331 l 83 1047 l 356 1047 l 356 496 q 358 413 356 446 q 370 338 360 379 q 399 271 381 296 q 454 228 418 246 q 540 211 490 211 q 626 228 590 211 q 681 271 663 246 q 710 338 700 296 q 723 413 721 379 q 725 496 725 446 l 725 1047 m 338 1321 l 492 1432 l 688 1193 l 575 1111 l 338 1321 z "},"Ý":{"ha":992,"x_min":-26,"x_max":1018,"o":"m 360 503 l -26 1047 l 300 1047 l 496 763 l 692 1047 l 1018 1047 l 632 503 l 632 0 l 360 0 l 360 503 m 726 1321 l 489 1111 l 376 1193 l 572 1432 l 726 1321 z "},"Ÿ":{"ha":992,"x_min":-26,"x_max":1018,"o":"m 360 503 l -26 1047 l 300 1047 l 496 763 l 692 1047 l 1018 1047 l 632 503 l 632 0 l 360 0 l 360 503 m 235 1365 q 255 1384 235 1365 q 332 1404 275 1404 q 428 1365 389 1404 q 468 1268 468 1325 q 428 1172 468 1211 q 332 1132 389 1132 q 235 1172 275 1132 q 194 1268 194 1211 q 235 1365 194 1325 m 590 1365 q 610 1384 590 1365 q 688 1404 631 1404 q 784 1365 744 1404 q 824 1268 824 1325 q 784 1172 824 1211 q 688 1132 744 1132 q 590 1172 631 1132 q 550 1268 550 1211 q 590 1365 550 1325 z "},"Ž":{"ha":982,"x_min":15,"x_max":967,"o":"m 474 231 l 913 231 l 913 0 l 15 0 l 511 817 l 100 817 l 100 1047 l 967 1047 l 474 231 m 200 1326 l 303 1444 l 503 1289 l 703 1444 l 810 1326 l 503 1100 l 200 1326 z "},"á":{"ha":947,"x_min":32,"x_max":863,"o":"m 574 470 q 552 493 574 470 q 456 517 531 517 q 337 470 381 517 q 293 356 293 424 q 337 241 293 286 q 456 196 381 196 q 574 241 531 196 q 618 356 618 286 q 574 470 618 424 m 863 713 l 863 0 l 610 0 l 610 79 l 607 79 q 517 2 575 28 q 392 -24 458 -24 q 134 88 236 -24 q 32 357 32 200 q 133 625 32 514 q 389 736 233 736 q 610 643 531 736 l 610 713 l 863 713 m 676 1028 l 439 818 l 326 900 l 522 1139 l 676 1028 z "},"â":{"ha":947,"x_min":32,"x_max":863,"o":"m 574 470 q 552 493 574 470 q 456 517 531 517 q 337 470 381 517 q 293 356 293 424 q 337 241 293 286 q 456 196 381 196 q 574 241 531 196 q 618 356 618 286 q 574 470 618 424 m 863 713 l 863 0 l 610 0 l 610 79 l 607 79 q 517 2 575 28 q 392 -24 458 -24 q 134 88 236 -24 q 32 357 32 200 q 133 625 32 514 q 389 736 233 736 q 610 643 531 736 l 610 713 l 863 713 m 168 924 l 471 1151 l 778 924 l 671 807 l 471 961 l 271 807 l 168 924 z "},"ä":{"ha":947,"x_min":32,"x_max":863,"o":"m 574 470 q 552 493 574 470 q 456 517 531 517 q 337 470 381 517 q 293 356 293 424 q 337 241 293 286 q 456 196 381 196 q 574 241 531 196 q 618 356 618 286 q 574 470 618 424 m 863 713 l 863 0 l 610 0 l 610 79 l 607 79 q 517 2 575 28 q 392 -24 458 -24 q 134 88 236 -24 q 32 357 32 200 q 133 625 32 514 q 389 736 233 736 q 610 643 531 736 l 610 713 l 863 713 m 199 1072 q 219 1091 199 1072 q 296 1111 239 1111 q 392 1071 353 1111 q 432 975 432 1031 q 392 878 432 918 q 296 839 353 839 q 199 878 239 839 q 158 975 158 918 q 199 1072 158 1032 m 554 1072 q 574 1091 554 1072 q 651 1111 594 1111 q 748 1071 708 1111 q 788 975 788 1031 q 748 878 788 918 q 651 839 708 839 q 554 878 594 839 q 514 975 514 918 q 554 1072 514 1032 z "},"à":{"ha":947,"x_min":32,"x_max":863,"o":"m 574 470 q 552 493 574 470 q 456 517 531 517 q 337 470 381 517 q 293 356 293 424 q 337 241 293 286 q 456 196 381 196 q 574 241 531 196 q 618 356 618 286 q 574 470 618 424 m 863 713 l 863 0 l 610 0 l 610 79 l 607 79 q 517 2 575 28 q 392 -24 458 -24 q 134 88 236 -24 q 32 357 32 200 q 133 625 32 514 q 389 736 233 736 q 610 643 531 736 l 610 713 l 863 713 m 299 1028 l 453 1139 l 649 900 l 536 818 l 299 1028 z "},"å":{"ha":947,"x_min":32,"x_max":863,"o":"m 574 470 q 552 493 574 470 q 456 517 531 517 q 337 470 381 517 q 293 356 293 424 q 337 241 293 286 q 456 196 381 196 q 574 241 531 196 q 618 356 618 286 q 574 470 618 424 m 863 713 l 863 0 l 610 0 l 610 79 l 607 79 q 517 2 575 28 q 392 -24 458 -24 q 134 88 236 -24 q 32 357 32 200 q 133 625 32 514 q 389 736 233 736 q 610 643 531 736 l 610 713 l 863 713 m 472 1132 q 625 1094 563 1132 q 688 972 688 1056 q 626 851 688 890 q 476 813 564 813 q 324 850 388 813 q 261 971 261 888 q 322 1093 261 1054 q 472 1132 383 1132 m 475 1032 q 417 1017 442 1032 q 393 972 393 1003 q 417 927 393 942 q 475 913 442 913 q 531 927 507 913 q 556 972 556 942 q 531 1017 556 1003 q 475 1032 507 1032 z "},"ã":{"ha":947,"x_min":32,"x_max":863,"o":"m 574 470 q 552 493 574 470 q 456 517 531 517 q 337 470 381 517 q 293 356 293 424 q 337 241 293 286 q 456 196 381 196 q 574 241 531 196 q 618 356 618 286 q 574 470 618 424 m 863 713 l 863 0 l 610 0 l 610 79 l 607 79 q 517 2 575 28 q 392 -24 458 -24 q 134 88 236 -24 q 32 357 32 200 q 133 625 32 514 q 389 736 233 736 q 610 643 531 736 l 610 713 l 863 713 m 313 856 l 199 856 l 197 871 q 228 994 197 943 q 351 1072 274 1072 q 470 1049 389 1072 q 578 1025 551 1025 q 613 1037 601 1025 q 633 1075 624 1049 l 751 1075 q 699 922 744 989 q 571 856 653 856 q 463 881 535 856 q 360 907 392 907 q 334 898 344 907 q 321 882 324 889 q 313 856 318 875 z "},"é":{"ha":847,"x_min":31,"x_max":815,"o":"m 288 460 l 581 460 q 531 541 571 510 q 438 572 490 572 q 340 543 381 572 q 288 460 299 514 m 815 340 l 815 314 l 283 314 q 442 156 283 156 q 563 221 524 156 l 806 221 q 675 39 776 101 q 443 -24 574 -24 q 145 76 260 -24 q 31 356 31 176 q 140 634 31 532 q 425 736 249 736 q 713 630 610 736 q 815 340 815 524 m 633 1028 l 396 818 l 283 900 l 479 1139 l 633 1028 z "},"ê":{"ha":847,"x_min":31,"x_max":815,"o":"m 288 460 l 581 460 q 531 541 571 510 q 438 572 490 572 q 340 543 381 572 q 288 460 299 514 m 815 340 l 815 314 l 283 314 q 442 156 283 156 q 563 221 524 156 l 806 221 q 675 39 776 101 q 443 -24 574 -24 q 145 76 260 -24 q 31 356 31 176 q 140 634 31 532 q 425 736 249 736 q 713 630 610 736 q 815 340 815 524 m 118 924 l 421 1151 l 728 924 l 621 807 l 421 961 l 221 807 l 118 924 z "},"ë":{"ha":847,"x_min":31,"x_max":815,"o":"m 288 460 l 581 460 q 531 541 571 510 q 438 572 490 572 q 340 543 381 572 q 288 460 299 514 m 815 340 l 815 314 l 283 314 q 442 156 283 156 q 563 221 524 156 l 806 221 q 675 39 776 101 q 443 -24 574 -24 q 145 76 260 -24 q 31 356 31 176 q 140 634 31 532 q 425 736 249 736 q 713 630 610 736 q 815 340 815 524 m 149 1072 q 169 1091 149 1072 q 246 1111 189 1111 q 342 1071 303 1111 q 382 975 382 1031 q 342 878 382 918 q 246 839 303 839 q 149 878 189 839 q 108 975 108 918 q 149 1072 108 1032 m 504 1072 q 524 1091 504 1072 q 601 1111 544 1111 q 698 1071 658 1111 q 738 975 738 1031 q 698 878 738 918 q 601 839 658 839 q 504 878 544 839 q 464 975 464 918 q 504 1072 464 1032 z "},"è":{"ha":847,"x_min":31,"x_max":815,"o":"m 288 460 l 581 460 q 531 541 571 510 q 438 572 490 572 q 340 543 381 572 q 288 460 299 514 m 815 340 l 815 314 l 283 314 q 442 156 283 156 q 563 221 524 156 l 806 221 q 675 39 776 101 q 443 -24 574 -24 q 145 76 260 -24 q 31 356 31 176 q 140 634 31 532 q 425 736 249 736 q 713 630 610 736 q 815 340 815 524 m 214 1028 l 368 1139 l 564 900 l 451 818 l 214 1028 z "},"í":{"ha":419,"x_min":56,"x_max":406,"o":"m 336 713 l 336 0 l 83 0 l 83 713 l 336 713 m 406 1028 l 168 818 l 56 900 l 251 1139 l 406 1028 z "},"î":{"ha":419,"x_min":-96,"x_max":514,"o":"m 336 713 l 336 0 l 83 0 l 83 713 l 336 713 m -96 924 l 207 1151 l 514 924 l 407 807 l 207 961 l 7 807 l -96 924 z "},"ï":{"ha":419,"x_min":-106,"x_max":524,"o":"m 336 713 l 336 0 l 83 0 l 83 713 l 336 713 m -65 1072 q -45 1091 -65 1072 q 32 1111 -25 1111 q 128 1071 89 1111 q 168 975 168 1031 q 128 878 168 918 q 32 839 89 839 q -65 878 -25 839 q -106 975 -106 918 q -65 1072 -106 1032 m 290 1072 q 310 1091 290 1072 q 388 1111 331 1111 q 484 1071 444 1111 q 524 975 524 1031 q 484 878 524 918 q 388 839 444 839 q 290 878 331 839 q 250 975 250 918 q 290 1072 250 1032 z "},"ì":{"ha":419,"x_min":14,"x_max":364,"o":"m 336 713 l 336 0 l 83 0 l 83 713 l 336 713 m 14 1028 l 168 1139 l 364 900 l 251 818 l 14 1028 z "},"ñ":{"ha":918,"x_min":83,"x_max":835,"o":"m 336 713 l 336 621 l 339 621 q 567 736 417 736 q 769 658 704 736 q 835 440 835 579 l 835 0 l 582 0 l 582 347 q 582 369 582 350 q 582 394 582 388 q 581 417 582 400 q 578 443 581 435 q 572 467 576 451 q 563 489 568 482 q 548 506 557 496 q 528 522 539 517 q 501 531 517 526 q 468 535 486 535 q 336 369 336 535 l 336 0 l 83 0 l 83 713 l 336 713 m 297 856 l 183 856 l 182 871 q 213 994 182 943 q 336 1072 258 1072 q 455 1049 374 1072 q 563 1025 536 1025 q 597 1037 586 1025 q 618 1075 608 1049 l 736 1075 q 683 922 729 989 q 556 856 638 856 q 448 881 519 856 q 344 907 376 907 q 319 898 329 907 q 306 882 308 889 q 297 856 303 875 z "},"ó":{"ha":919,"x_min":31,"x_max":889,"o":"m 155 633 q 217 685 155 633 q 460 736 279 736 q 765 633 640 736 q 889 356 889 531 q 765 78 889 181 q 460 -24 640 -24 q 156 78 281 -24 q 31 356 31 181 q 155 633 31 531 m 578 470 q 557 493 578 470 q 460 517 535 517 q 341 470 385 517 q 297 356 297 424 q 341 241 297 286 q 460 196 385 196 q 578 241 535 196 q 622 356 622 286 q 578 470 622 424 m 669 1028 l 432 818 l 319 900 l 515 1139 l 669 1028 z "},"ô":{"ha":919,"x_min":31,"x_max":889,"o":"m 155 633 q 217 685 155 633 q 460 736 279 736 q 765 633 640 736 q 889 356 889 531 q 765 78 889 181 q 460 -24 640 -24 q 156 78 281 -24 q 31 356 31 181 q 155 633 31 531 m 578 470 q 557 493 578 470 q 460 517 535 517 q 341 470 385 517 q 297 356 297 424 q 341 241 297 286 q 460 196 385 196 q 578 241 535 196 q 622 356 622 286 q 578 470 622 424 m 154 924 l 457 1151 l 764 924 l 657 807 l 457 961 l 257 807 l 154 924 z "},"ö":{"ha":919,"x_min":31,"x_max":889,"o":"m 155 633 q 217 685 155 633 q 460 736 279 736 q 765 633 640 736 q 889 356 889 531 q 765 78 889 181 q 460 -24 640 -24 q 156 78 281 -24 q 31 356 31 181 q 155 633 31 531 m 578 470 q 557 493 578 470 q 460 517 535 517 q 341 470 385 517 q 297 356 297 424 q 341 241 297 286 q 460 196 385 196 q 578 241 535 196 q 622 356 622 286 q 578 470 622 424 m 185 1072 q 205 1091 185 1072 q 282 1111 225 1111 q 378 1071 339 1111 q 418 975 418 1031 q 378 878 418 918 q 282 839 339 839 q 185 878 225 839 q 144 975 144 918 q 185 1072 144 1032 m 540 1072 q 560 1091 540 1072 q 638 1111 581 1111 q 734 1071 694 1111 q 774 975 774 1031 q 734 878 774 918 q 638 839 694 839 q 540 878 581 839 q 500 975 500 918 q 540 1072 500 1032 z "},"ò":{"ha":919,"x_min":31,"x_max":889,"o":"m 155 633 q 217 685 155 633 q 460 736 279 736 q 765 633 640 736 q 889 356 889 531 q 765 78 889 181 q 460 -24 640 -24 q 156 78 281 -24 q 31 356 31 181 q 155 633 31 531 m 578 470 q 557 493 578 470 q 460 517 535 517 q 341 470 385 517 q 297 356 297 424 q 341 241 297 286 q 460 196 385 196 q 578 241 535 196 q 622 356 622 286 q 578 470 622 424 m 250 1028 l 404 1139 l 600 900 l 488 818 l 250 1028 z "},"õ":{"ha":919,"x_min":31,"x_max":889,"o":"m 155 633 q 217 685 155 633 q 460 736 279 736 q 765 633 640 736 q 889 356 889 531 q 765 78 889 181 q 460 -24 640 -24 q 156 78 281 -24 q 31 356 31 181 q 155 633 31 531 m 578 470 q 557 493 578 470 q 460 517 535 517 q 341 470 385 517 q 297 356 297 424 q 341 241 297 286 q 460 196 385 196 q 578 241 535 196 q 622 356 622 286 q 578 470 622 424 m 299 856 l 185 856 l 183 871 q 214 994 183 943 q 338 1072 260 1072 q 456 1049 375 1072 q 564 1025 538 1025 q 599 1037 588 1025 q 619 1075 610 1049 l 738 1075 q 685 922 731 989 q 557 856 639 856 q 449 881 521 856 q 346 907 378 907 q 320 898 331 907 q 307 882 310 889 q 299 856 304 875 z "},"š":{"ha":713,"x_min":36,"x_max":661,"o":"m 639 690 l 554 529 q 418 564 489 564 q 365 551 390 564 q 339 515 339 539 q 343 497 339 506 q 356 483 347 489 q 372 472 364 476 q 394 465 381 468 q 415 460 407 461 q 435 456 422 458 q 453 453 449 454 q 660 242 660 411 q 560 44 660 111 q 324 -24 461 -24 q 36 58 169 -24 l 128 235 q 226 184 169 206 q 328 163 283 163 q 382 176 357 163 q 407 217 407 190 q 399 244 407 232 q 374 263 392 256 q 340 275 356 271 q 294 285 324 279 q 249 296 265 292 q 133 356 176 315 q 90 483 90 397 q 138 626 90 567 q 253 710 185 685 q 404 736 322 736 q 639 690 538 736 m 51 1033 l 154 1151 l 354 996 l 554 1151 l 661 1033 l 354 807 l 51 1033 z "},"ú":{"ha":915,"x_min":79,"x_max":838,"o":"m 79 713 l 332 713 l 332 332 q 359 217 332 257 q 458 178 386 178 q 558 217 531 178 q 585 332 585 257 l 585 713 l 838 713 l 838 283 q 458 -24 838 -24 q 79 283 79 -24 l 79 713 m 675 1028 l 438 818 l 325 900 l 521 1139 l 675 1028 z "},"û":{"ha":915,"x_min":79,"x_max":838,"o":"m 79 713 l 332 713 l 332 332 q 359 217 332 257 q 458 178 386 178 q 558 217 531 178 q 585 332 585 257 l 585 713 l 838 713 l 838 283 q 458 -24 838 -24 q 79 283 79 -24 l 79 713 m 153 924 l 456 1151 l 763 924 l 656 807 l 456 961 l 256 807 l 153 924 z "},"ü":{"ha":915,"x_min":79,"x_max":838,"o":"m 79 713 l 332 713 l 332 332 q 359 217 332 257 q 458 178 386 178 q 558 217 531 178 q 585 332 585 257 l 585 713 l 838 713 l 838 283 q 458 -24 838 -24 q 79 283 79 -24 l 79 713 m 281 1111 q 376 1071 336 1111 q 417 975 417 1031 q 377 878 417 918 q 281 839 338 839 q 183 878 224 839 q 143 975 143 918 q 183 1072 143 1032 q 281 1111 224 1111 m 636 1111 q 732 1071 692 1111 q 772 975 772 1031 q 733 878 772 918 q 636 839 693 839 q 539 878 579 839 q 499 975 499 918 q 539 1072 499 1032 q 636 1111 579 1111 z "},"ù":{"ha":915,"x_min":79,"x_max":838,"o":"m 79 713 l 332 713 l 332 332 q 359 217 332 257 q 458 178 386 178 q 558 217 531 178 q 585 332 585 257 l 585 713 l 838 713 l 838 283 q 458 -24 838 -24 q 79 283 79 -24 l 79 713 m 242 1028 l 396 1139 l 592 900 l 479 818 l 242 1028 z "},"ý":{"ha":908,"x_min":-21,"x_max":935,"o":"m 324 97 l -21 713 l 271 713 l 461 347 l 647 713 l 935 713 l 364 -356 l 81 -356 l 324 97 m 685 1028 l 447 818 l 335 900 l 531 1139 l 685 1028 z "},"ÿ":{"ha":908,"x_min":-21,"x_max":935,"o":"m 324 97 l -21 713 l 271 713 l 461 347 l 647 713 l 935 713 l 364 -356 l 81 -356 l 324 97 m 297 1111 q 393 1071 353 1111 q 433 975 433 1031 q 394 878 433 918 q 297 839 354 839 q 200 878 240 839 q 160 975 160 918 q 200 1072 160 1032 q 297 1111 240 1111 m 653 1111 q 749 1071 708 1111 q 789 975 789 1031 q 749 878 789 918 q 653 839 710 839 q 556 878 596 839 q 515 975 515 918 q 556 1072 515 1032 q 653 1111 596 1111 z "},"ž":{"ha":776,"x_min":11,"x_max":767,"o":"m 433 210 l 733 210 l 733 0 l 11 0 l 346 503 l 56 503 l 56 713 l 767 713 l 433 210 m 83 1033 l 186 1151 l 386 996 l 586 1151 l 693 1033 l 386 807 l 83 1033 z "},"€":{"ha":957,"x_min":7,"x_max":964,"o":"m 964 1004 q 825 1053 925 1036 q 674 1067 750 1067 q 328 954 467 1067 q 149 656 189 844 l 40 656 l 7 550 l 135 550 l 135 522 q 138 465 135 501 l 40 465 l 7 360 l 153 360 q 333 69 196 176 q 682 -42 476 -42 q 886 -6 801 -42 l 886 254 q 786 213 849 231 q 688 194 728 194 q 425 360 503 194 l 788 360 l 821 465 l 394 465 q 390 521 390 492 q 392 550 390 540 l 842 550 l 868 656 l 414 656 q 683 831 483 831 q 801 810 736 831 q 899 763 867 788 l 964 1004 z "}," ":{"ha":476,"x_min":0,"x_max":0,"o":""},"-":{"ha":544,"x_min":74,"x_max":471,"o":"m 74 550 l 471 550 l 471 342 l 74 342 l 74 550 z "}}}
